<svg width="32" height="32" viewBox="0 0 32 32" fill="none" xmlns="http://www.w3.org/2000/svg">
<g clip-path="url(#clip0_821_1754)">
<path d="M23.656 24.6497L24.6046 23.7012V21.2397H27.9349V19.3426H24.6046V16.9495H27.9349V15.0524H24.6046V12.6592H27.9349V10.7622H24.6046V8.30069L23.656 7.35215H21.1946V5.19328L19.2975 4.09771V7.3512H16.9043V2.71569L16.6672 2.5791H15.2444L15.0072 2.71569V7.3512H12.6141V4.09771L10.717 5.19328V7.35215H8.25555L7.30701 8.30069V10.7622H3.97668V12.6592H7.30701V15.0524H3.97668V16.9495H7.30701V19.3426H3.97668V21.2397H7.30701V23.7012L8.25555 24.6497H10.717V26.8076L12.6141 27.9032V24.6497H15.0072V29.2852L15.2444 29.4218H16.6672L16.9043 29.2852V24.6497H19.2975V27.9032L21.1946 26.8076V24.6497H23.656ZM9.20409 22.7526V9.24828H22.7075V22.7517L9.20409 22.7526ZM18.7872 10.7403H21.1775L13.1206 21.2596H10.7303L18.7872 10.7403Z" fill="#FFBA00"/>
</g>
<defs>
<clipPath id="clip0_821_1754">
<rect width="23.9582" height="26.8427" fill="white" transform="translate(3.97668 2.5791)"/>
</clipPath>
</defs>
</svg>
