<svg width="662" height="374" viewBox="0 0 662 374" fill="none" xmlns="http://www.w3.org/2000/svg">
<path d="M419.094 82.0545C419.094 87.3512 414.8 91.645 409.504 91.645C404.207 91.645 399.913 87.3512 399.913 82.0545C399.913 76.7579 404.207 72.4641 409.504 72.4641C414.8 72.4641 419.094 76.7579 419.094 82.0545Z" fill="#FFFFFF" stroke="#FFFFFF" stroke-width="0.0377953"/>
<path fill-rule="evenodd" clip-rule="evenodd" d="M421.45 13.9824L417.623 25.84L405.163 25.8156L415.257 33.1205L411.385 44.9622L421.45 37.6194L431.516 44.9622L427.643 33.1205L437.737 25.8156L425.278 25.84L421.45 13.9824Z" fill="#FFFFFF"/>
<path fill-rule="evenodd" clip-rule="evenodd" d="M421.45 10.9377C422.772 10.9377 423.942 11.7898 424.348 13.0471L427.493 22.791L437.731 22.7709C439.052 22.7684 440.225 23.6181 440.633 24.8746C441.041 26.1311 440.593 27.5075 439.522 28.2821L431.228 34.285L434.41 44.0158C434.821 45.2715 434.375 46.6488 433.306 47.4254C432.237 48.202 430.789 48.2006 429.722 47.422L421.45 41.3881L413.179 47.422C412.111 48.2006 410.664 48.202 409.595 47.4254C408.526 46.6488 408.08 45.2715 408.491 44.0158L411.673 34.285L403.378 28.2821C402.308 27.5075 401.86 26.1311 402.268 24.8746C402.676 23.6181 403.848 22.7684 405.169 22.7709L415.408 22.791L418.553 13.0471C418.959 11.7898 420.129 10.9377 421.45 10.9377ZM421.45 23.8937L420.52 26.7753C420.114 28.0347 418.94 28.8872 417.617 28.8846L414.589 28.8787L417.042 30.654C418.114 31.4298 418.563 32.8092 418.151 34.0669L417.21 36.9438L419.656 35.1597C420.725 34.3798 422.176 34.3798 423.245 35.1597L425.691 36.9439L424.75 34.0669C424.338 32.8092 424.786 31.4298 425.858 30.654L428.312 28.8787L425.284 28.8846C423.961 28.8872 422.787 28.0347 422.381 26.7753L421.45 23.8937Z" fill="#FFFFFF"/>
<path fill-rule="evenodd" clip-rule="evenodd" d="M421.45 13.9824L417.623 25.84L405.163 25.8156L415.257 33.1205L411.385 44.9622L421.45 37.6194L431.516 44.9622L427.643 33.1205L437.737 25.8156L425.278 25.84L421.45 13.9824Z" stroke="#FFFFFF" stroke-width="1.88561" stroke-miterlimit="22.9256" stroke-linecap="round" stroke-linejoin="round"/>
<path fill-rule="evenodd" clip-rule="evenodd" d="M421.45 10.9377C422.772 10.9377 423.942 11.7898 424.348 13.0471L427.493 22.791L437.731 22.7709C439.052 22.7684 440.225 23.6181 440.633 24.8746C441.041 26.1311 440.593 27.5075 439.522 28.2821L431.228 34.285L434.41 44.0158C434.821 45.2715 434.375 46.6488 433.306 47.4254C432.237 48.202 430.789 48.2006 429.722 47.422L421.45 41.3881L413.179 47.422C412.111 48.2006 410.664 48.202 409.595 47.4254C408.526 46.6488 408.08 45.2715 408.491 44.0158L411.673 34.285L403.378 28.2821C402.308 27.5075 401.86 26.1311 402.268 24.8746C402.676 23.6181 403.848 22.7684 405.169 22.7709L415.408 22.791L418.553 13.0471C418.959 11.7898 420.129 10.9377 421.45 10.9377ZM421.45 23.8937L420.52 26.7753C420.114 28.0347 418.94 28.8872 417.617 28.8846L414.589 28.8787L417.042 30.654C418.114 31.4298 418.563 32.8092 418.151 34.0669L417.21 36.9438L419.656 35.1597C420.725 34.3798 422.176 34.3798 423.245 35.1597L425.691 36.9439L424.75 34.0669C424.338 32.8092 424.786 31.4298 425.858 30.654L428.312 28.8787L425.284 28.8846C423.961 28.8872 422.787 28.0347 422.381 26.7753L421.45 23.8937Z" stroke="#FFFFFF" stroke-width="1.88561" stroke-miterlimit="22.9256" stroke-linecap="round" stroke-linejoin="round"/>
<path fill-rule="evenodd" clip-rule="evenodd" d="M484.851 26.1552C487.586 28.1118 488.218 31.9153 486.261 34.6505L458.785 73.061C456.829 75.7963 453.025 76.4275 450.29 74.471C447.555 72.5144 446.924 68.7109 448.88 65.9756L476.356 27.5651C478.312 24.8299 482.116 24.1986 484.851 26.1552Z" fill="#FFFFFF" stroke="#FFFFFF" stroke-width="3.77121" stroke-miterlimit="22.9256" stroke-linecap="round"/>
<path fill-rule="evenodd" clip-rule="evenodd" d="M513.351 66.861C514.76 69.9147 513.427 73.5323 510.373 74.9413L481.532 88.2489C478.478 89.6578 474.861 88.3246 473.452 85.2709C472.043 82.2173 473.376 78.5996 476.43 77.1906L505.271 63.8831C508.325 62.4741 511.942 63.8074 513.351 66.861Z" fill="#FFFFFF" stroke="#FFFFFF" stroke-width="3.77121" stroke-miterlimit="22.9256" stroke-linecap="round"/>
<path d="M264.89 82.0545C264.89 87.3512 260.596 91.645 255.299 91.645C250.003 91.645 245.709 87.3512 245.709 82.0545C245.709 76.7579 250.003 72.4641 255.299 72.4641C260.596 72.4641 264.89 76.7579 264.89 82.0545Z" fill="#FFFFFF" stroke="#FFFFFF" stroke-width="0.0377953"/>
<path fill-rule="evenodd" clip-rule="evenodd" d="M243.352 13.9824L247.18 25.84L259.641 25.8156L249.545 33.1205L253.419 44.9623L243.352 37.6195L233.287 44.9623L237.159 33.1205L227.066 25.8156L239.525 25.84L243.352 13.9824Z" fill="#FFFFFF" stroke="#FFFFFF" stroke-width="1.88561" stroke-miterlimit="22.9256" stroke-linecap="round" stroke-linejoin="round"/>
<path fill-rule="evenodd" clip-rule="evenodd" d="M243.352 10.9377C244.674 10.9377 245.844 11.7898 246.25 13.0471L249.395 22.791L259.635 22.7709C260.956 22.7684 262.128 23.6182 262.536 24.8747C262.944 26.1312 262.496 27.5077 261.425 28.2822L253.13 34.285L256.313 44.0155C256.724 45.2712 256.278 46.6486 255.209 47.4253C254.14 48.2019 252.693 48.2006 251.625 47.4221L243.353 41.388L235.081 47.422C234.014 48.2006 232.566 48.202 231.497 47.4254C230.428 46.6488 229.982 45.2715 230.393 44.0158L233.575 34.285L225.28 28.2821C224.21 27.5075 223.762 26.1311 224.17 24.8746C224.578 23.6181 225.75 22.7684 227.071 22.7709L237.31 22.791L240.455 13.0471C240.861 11.7898 242.031 10.9377 243.352 10.9377ZM243.352 23.8937L242.422 26.7753C242.016 28.0347 240.842 28.8872 239.519 28.8846L236.491 28.8787L238.944 30.654C240.016 31.4298 240.464 32.8092 240.053 34.0669L239.112 36.9439L241.558 35.1597C242.627 34.3799 244.077 34.3798 245.147 35.1596L247.593 36.9438L246.652 34.0672C246.24 32.8094 246.688 31.4297 247.761 30.6539L250.214 28.8787L247.186 28.8846C245.863 28.8872 244.689 28.0347 244.283 26.7753L243.352 23.8937Z" fill="#FFFFFF" stroke="#FFFFFF" stroke-width="1.88561" stroke-miterlimit="22.9256" stroke-linecap="round" stroke-linejoin="round"/>
<path fill-rule="evenodd" clip-rule="evenodd" d="M179.952 26.1553C182.687 24.1986 186.491 24.8298 188.447 27.565L215.924 65.9755C217.881 68.7107 217.249 72.5142 214.514 74.4709C211.779 76.4275 207.975 75.7963 206.019 73.0611L178.542 34.6506C176.585 31.9154 177.217 28.1119 179.952 26.1553Z" fill="#FFFFFF" stroke="#FFFFFF" stroke-width="3.77121" stroke-miterlimit="22.9256" stroke-linecap="round"/>
<path fill-rule="evenodd" clip-rule="evenodd" d="M151.452 66.861C152.861 63.8074 156.478 62.4741 159.532 63.8831L188.373 77.1906C191.427 78.5996 192.76 82.2173 191.351 85.2709C189.942 88.3246 186.325 89.6578 183.271 88.2489L154.43 74.9413C151.376 73.5323 150.043 69.9147 151.452 66.861Z" fill="#FFFFFF" stroke="#FFFFFF" stroke-width="3.77121" stroke-miterlimit="22.9256" stroke-linecap="round"/>
<path fill-rule="evenodd" clip-rule="evenodd" d="M8.32798 163.711C10.6867 161.314 14.5421 161.283 16.9393 163.641L64.549 210.486C66.9462 212.845 66.9775 216.7 64.6188 219.097C62.2601 221.494 58.4047 221.526 56.0075 219.167L8.39776 172.323C6.00055 169.964 5.96931 166.108 8.32798 163.711Z" fill="#FFFFFF" stroke="#FFFFFF" stroke-width="3.77121" stroke-miterlimit="22.9256" stroke-linecap="round"/>
<path d="M71.0552 159.393C71.0552 163.526 67.7046 166.877 63.5714 166.877C59.4382 166.877 56.0876 163.526 56.0876 159.393C56.0876 155.26 59.4382 151.909 63.5714 151.909C67.7046 151.909 71.0552 155.26 71.0552 159.393Z" fill="#FFFFFF" stroke="#FFFFFF" stroke-width="0.0377953"/>
<path fill-rule="evenodd" clip-rule="evenodd" d="M49.9139 328.713C51.5481 331.652 50.49 335.359 47.5507 336.994L13.035 356.183C10.0957 357.817 6.38818 356.759 4.75404 353.82C3.1199 350.88 4.17795 347.173 7.11725 345.539L41.633 326.349C44.5723 324.715 48.2798 325.773 49.9139 328.713Z" fill="#FFFFFF" stroke="#FFFFFF" stroke-width="3.77121" stroke-miterlimit="22.9256" stroke-linecap="round"/>
<path fill-rule="evenodd" clip-rule="evenodd" d="M2.09614 259.735C2.68822 256.424 5.85187 254.221 9.16236 254.813L47.8707 261.735C51.1812 262.328 53.3849 265.491 52.7928 268.802C52.2007 272.112 49.0371 274.316 45.7266 273.724L7.01828 266.801C3.70778 266.209 1.50407 263.045 2.09614 259.735Z" fill="#FFFFFF" stroke="#FFFFFF" stroke-width="3.77121" stroke-miterlimit="22.9256" stroke-linecap="round"/>
<path fill-rule="evenodd" clip-rule="evenodd" d="M332.185 17.2071C312.952 17.2071 297.362 32.7981 297.362 52.0304C297.362 71.2628 312.952 86.8538 332.185 86.8538C351.417 86.8538 367.008 71.2628 367.008 52.0304C367.008 32.798 351.417 17.2071 332.185 17.2071ZM283.154 52.0304C283.154 24.9517 305.106 3 332.185 3C359.264 3 381.215 24.9517 381.215 52.0304C381.215 79.1092 359.264 101.061 332.185 101.061C305.106 101.061 283.154 79.1092 283.154 52.0304Z" fill="#FFFFFF" stroke="#FFFFFF" stroke-width="4.39937" stroke-miterlimit="22.9256" stroke-linecap="round"/>
<path d="M339.238 73.1751C339.238 77.0703 336.08 80.228 332.185 80.228C328.29 80.228 325.132 77.0703 325.132 73.1751C325.132 69.2799 328.29 66.1222 332.185 66.1222C336.08 66.1222 339.238 69.2799 339.238 73.1751Z" fill="#FFFFFF" stroke="#FFFFFF" stroke-width="0.0377953"/>
<path fill-rule="evenodd" clip-rule="evenodd" d="M318.029 37.9735C318.018 32.0026 326.222 26.6517 332.301 26.6517C338.379 26.6517 346.239 32.0221 346.239 37.9735C346.239 43.9236 345.655 46.5637 343.813 52.0305C341.059 60.2069 336.471 63.2753 332.442 63.2656C327.825 63.2546 322.69 59.9823 320.265 52.0305C318.285 45.5347 318.04 43.9456 318.029 37.9735Z" fill="#FFFFFF" stroke="#FFFFFF" stroke-width="0.471307" stroke-miterlimit="22.9256" stroke-linecap="round"/>
<mask id="path-17-inside-1_150_2" fill="white">
<path fill-rule="evenodd" clip-rule="evenodd" d="M470.684 373.829C478.748 373.839 485.519 371.97 490.622 368.279L490.624 368.282C495.727 372.075 502.098 373.831 508.802 373.831C522.358 373.831 530.828 367.227 535.592 354.447C536.477 352.073 537.35 349.695 538.218 347.314H538.685L538.936 348.05C539.581 349.943 540.227 351.836 540.859 353.74C545.048 366.336 555.503 373.831 568.695 373.831C588.201 373.83 599.193 359.591 597.808 340.966C597.392 335.37 596.065 330.411 594.467 325.09C586.799 299.546 578.292 274.512 568.325 249.764C563.213 237.068 552.239 229.925 538.583 229.925C538.469 229.925 538.354 229.926 538.239 229.926V196.156C542.794 188.891 546.758 182.714 550.687 176.59C555.323 169.365 559.911 162.216 565.362 153.445C568.326 148.414 571.549 141.146 571.903 135.323C572.374 127.594 570.402 121.64 565.774 115.361C560.737 108.527 553.21 105.506 544.838 104.484C535.119 103.298 525.429 105.613 518.093 112.422C513.205 116.96 508.484 124.897 504.491 131.84C501.66 126.991 498.716 122.111 495.442 117.859C488.953 109.429 477.673 103.841 467.009 104.259C459.229 104.563 451.697 107.369 446.021 112.779C442.665 115.981 440.379 120.004 439.072 124.352C432.888 121.144 426.026 119.039 419.451 119.039H384.854C372.511 119.039 361.225 127.262 357.016 138.442C344.5 126.38 327.294 119.038 308.666 119.038C293.029 119.038 278.392 124.212 266.691 133.01C261.865 125.463 253.736 120.465 243.696 120.465H191.329C187.296 120.465 183.572 121.319 180.253 122.845C175.046 109.526 161.02 103.928 145.128 103.928C116.982 103.928 92.5411 126.493 92.5484 155.089C92.552 171.565 97.8968 184.618 108.725 194.374C99.2003 199.434 93.0928 209.776 93.0928 221.437C93.0928 225.455 93.7384 229.383 94.9248 233.13C79.9976 234.132 66.4459 244.711 66.4153 260.616L66.2554 344.148L66.2567 344.379C66.4862 364.323 78.6074 373.805 97.5148 373.805L135.409 373.806C141.68 373.806 147.506 371.924 152.271 368.658C157.284 372.191 163.45 373.829 169.926 373.829C183.481 373.829 191.952 367.225 196.716 354.444C197.601 352.07 198.473 349.693 199.341 347.311H199.809C199.894 347.563 199.98 347.815 200.066 348.066C200.709 349.953 201.352 351.84 201.982 353.738C206.171 366.334 216.626 373.829 229.818 373.829C237.389 373.829 243.677 371.683 248.457 367.969C253.412 371.586 259.594 373.717 266.515 373.827L266.82 373.831L267.125 373.825C280.308 373.569 291.669 365.45 295.5 353.495L298.655 358.18L298.769 358.34C305.808 368.297 314.883 373.829 327.197 373.829C335.555 373.829 342.635 371.294 347.948 366.858C353.346 371.235 360.297 373.829 368.165 373.829H385.576C405.916 373.829 426.339 366.421 441.254 353.458C444.425 367.04 454.796 373.811 470.684 373.829ZM145.127 121.189C161.511 121.189 165.141 127.428 165.141 135.202C165.141 138.186 164.874 142.369 161.198 144.716C158.56 146.399 154.491 146.475 146.98 146.478C143.203 146.478 140.948 147.852 139.417 149.517C137.851 151.219 137.052 153.265 137.052 157.355C137.052 167.507 146.376 170.38 157.174 173.706C172.028 178.282 189.672 183.718 189.672 210.146C189.672 237.177 166.054 249.679 146.978 249.679C123.485 249.679 110.351 234.526 110.351 221.437C110.351 213.969 115.341 208.344 122.149 208.344C129.537 208.344 131.914 212.655 134.31 217.002C136.748 221.423 139.206 225.882 146.98 225.882C154.017 225.882 161.546 219.902 161.585 213.523L161.586 213.361L161.587 213.179L161.589 212.94C161.609 210.778 161.624 209.235 160.647 206.957C157.51 199.633 149.3 196.281 140.37 192.635C126.021 186.776 109.813 180.158 109.807 155.086C109.802 135.518 127.068 121.189 145.127 121.189ZM181.096 150.1C181.096 142.645 185.786 137.726 191.328 137.726H243.694C249.299 137.726 254.278 142.042 254.278 150.1C254.278 159.091 247.783 162.658 243.694 162.658H230.144V224.308C230.144 229.102 225.732 233.899 217.246 233.899C207.86 233.899 203.657 227.869 203.657 224.308V162.658C197.768 162.658 195.236 162.658 191.329 162.657C187.518 162.656 181.096 158.942 181.096 150.1ZM359.964 185.697C359.964 158.413 336.997 136.298 308.665 136.298C280.33 136.298 257.363 158.414 257.363 185.697C257.363 212.978 280.33 235.093 308.665 235.093C336.997 235.093 359.964 212.978 359.964 185.697ZM332.378 184.986C332.378 171.604 321.676 160.758 308.475 160.758C295.273 160.758 284.571 171.605 284.571 184.986C284.571 198.366 295.273 209.212 308.475 209.212C321.676 209.212 332.378 198.365 332.378 184.986ZM384.852 136.299H419.45C429.277 136.299 450.614 147.642 450.614 170.246C450.614 180.133 447.298 183.941 442.336 189.639L442.335 189.639C441.44 190.667 440.492 191.756 439.5 192.953C438.726 193.888 437.763 195.591 437.789 196.962C437.81 198.089 438.635 199.49 439.363 200.727C439.484 200.933 439.602 201.134 439.713 201.329L445.911 212.145C454.707 227.493 446.091 236.355 437.913 236.355H437.9C434.255 236.355 428.972 236.355 425.245 229.293L414.189 208.343C413.585 207.196 412.321 206.847 410.961 206.847H400.726C398.988 206.847 398.708 207.7 398.717 209.371L398.775 220.54C398.835 232.169 392.936 236.353 385.431 236.353C379.431 236.353 372.524 233.242 372.524 220.54C372.524 209.411 372.531 200.55 372.538 192.241V192.228V192.217V192.208V192.2V192.194V192.189V192.185V192.182V192.179C372.55 178.505 372.56 166.312 372.534 147.943C372.527 144.06 376.559 136.297 384.855 136.297L384.852 136.299ZM400.191 160.487H410.514C420.918 160.487 422.59 166.288 422.59 170.526C422.59 174.762 419.878 180.277 410.135 180.277H400.954C399.571 180.277 399.003 180.135 399.003 178.658C399.003 177.543 399.004 176.423 399.004 175.299L399.004 173.118C399.005 169.392 399.006 165.644 399.003 161.961V161.958C399.003 161.022 399.003 160.487 400.191 160.487ZM515.984 246.25C512.729 248.717 508.519 249.989 504.451 249.989C500.415 249.989 496.073 248.636 492.836 246.204C489.905 244.003 487.927 240.956 487.927 237.359V196.157C487.786 191.703 487.189 189.751 485.525 187.109L459.159 146.132C458.975 145.819 458.791 145.515 458.61 145.213C457.189 142.854 455.879 140.679 455.196 136.301C454.426 131.362 455.858 127.25 457.931 125.273C460.005 123.296 463.275 121.68 467.683 121.508C472.093 121.334 478.281 123.866 481.764 128.389C484.446 131.875 488.075 138.043 491.369 143.643C492.351 145.312 493.303 146.93 494.191 148.412C498.062 154.867 499.463 156.986 502.272 161.103L502.344 161.204C502.894 161.982 503.433 162.744 504.492 162.744C505.368 162.722 506.127 161.746 506.648 161.076C506.681 161.034 506.712 160.994 506.743 160.954C509.018 158.047 511.522 154.006 515.819 146.74C516.529 145.541 517.287 144.238 518.076 142.885L518.076 142.884L518.076 142.883C522.065 136.037 526.819 127.877 529.836 125.075C533.45 121.721 538.265 121.261 542.746 121.621C545.785 121.865 548.615 122.716 551.451 125.319C553.859 127.531 554.896 130.045 554.579 134.373C554.292 138.267 551.85 142.749 550.226 145.506L536.197 167.308L535.02 169.138L523.456 187.109C521.739 189.78 521.199 191.989 520.978 196.157V237.247C520.978 240.761 519.026 243.943 515.984 246.25ZM97.5159 356.545L135.41 356.546C141.634 356.546 147.238 352.242 147.238 345.326C147.238 335.719 143.256 331.623 135.41 331.613L110.03 331.584L110.162 260.65C110.17 255.855 105.769 250.33 97.2852 250.313C87.9005 250.293 83.6847 256.212 83.675 260.65L83.5151 344.181C83.6396 355.046 88.9086 356.527 97.5159 356.545ZM180.542 348.416C177.686 356.08 174.399 356.57 169.926 356.57C153.073 356.57 158.761 338.206 160.901 331.3C161.047 330.827 161.177 330.408 161.282 330.052C168.587 305.248 175.758 282.365 185.767 256.212C188.031 250.297 192.312 247.184 199.706 247.184C206.601 247.184 211.063 250.313 213.438 256.212C223.596 281.433 231.436 304.657 239.06 330.052C239.093 330.163 239.129 330.281 239.167 330.407L239.259 330.707C241.113 336.773 247.164 356.57 229.818 356.57C225.54 356.57 220.614 355.066 218.362 348.292C217.519 345.757 216.91 343.997 216.337 342.341L216.336 342.34L216.336 342.34L216.335 342.338C215.41 339.663 214.577 337.259 213.004 332.293C212.558 330.886 212.066 330.052 209.636 330.052H190.263L190.058 330.052C187.901 330.05 187.226 330.05 186.584 331.833C184.865 336.606 182.541 343.052 180.542 348.416ZM202.87 311.206C205.524 311.206 207.86 310.169 207.099 307.362L200.98 288.929C200.706 288.19 200.312 287.814 199.8 287.849C199.533 287.869 198.971 288.167 198.711 288.945L192.555 307.4C191.459 310.683 194.609 311.16 196.591 311.171L202.87 311.206ZM253.315 265.211C253.315 256.819 257.074 250.314 266.875 250.314C274.074 250.314 277.23 253.327 280.48 258.116C287.599 269.61 294.719 281.104 301.838 292.597L309.408 304.819C314.295 312.004 314.202 308.551 314.127 305.765C314.118 305.434 314.11 305.112 314.11 304.819V266.773C314.11 254.294 321.722 250.314 327.67 250.314C336.85 250.314 341.368 256.641 341.368 262.064V341.918C341.368 350.767 337.011 356.571 327.196 356.571C322.519 356.571 317.874 355.467 312.862 348.378L283.532 304.819C282.143 302.813 279.621 300.251 279.621 304.819V344.534C279.621 352.84 272.356 356.462 266.791 356.57C261.399 356.484 253.313 353.285 253.313 342.488L253.315 265.211ZM384.246 250.313H367.5C357.782 250.313 353.416 256.213 353.416 266.015V341.176C353.416 348.292 357.783 356.57 368.167 356.57H385.578C419.999 356.57 446.851 332.701 446.823 304.817C446.798 278.934 426.872 250.313 384.246 250.313ZM394.99 274.932H386.586C381.708 274.932 379.515 276.165 379.515 281.462V328.244C379.515 332.089 382.806 332.348 385.54 332.35L392.123 332.358C408.065 332.374 420.49 318.086 420.478 303.018C420.467 289.031 405.349 274.932 394.99 274.932ZM470.703 356.57C479.197 356.57 483.851 354.581 483.98 344.418L484.131 260.651C484.14 255.856 479.739 250.33 471.256 250.314C461.872 250.296 457.646 255.646 457.637 260.651L457.487 344.182C457.611 355.048 462.096 356.551 470.703 356.57ZM519.417 348.416C516.561 356.08 513.274 356.57 508.801 356.57C491.948 356.57 497.637 338.206 499.776 331.3L499.778 331.295C499.923 330.824 500.053 330.407 500.157 330.052C507.462 305.248 514.633 282.365 524.643 256.212C526.907 250.297 531.187 247.184 538.581 247.184C545.476 247.184 549.938 250.313 552.314 256.212C562.471 281.433 570.312 304.657 577.935 330.052C577.965 330.152 577.997 330.257 578.031 330.369C578.064 330.476 578.098 330.589 578.134 330.706C579.988 336.772 586.039 356.57 568.693 356.57C564.415 356.57 559.489 355.066 557.237 348.292C556.395 345.758 555.786 343.999 555.213 342.344L555.211 342.338L555.211 342.338L555.21 342.337L555.209 342.334C554.284 339.661 553.452 337.257 551.879 332.293C551.433 330.886 550.942 330.052 548.512 330.052H529.138L528.933 330.052C526.776 330.05 526.101 330.05 525.459 331.833C523.741 336.606 521.417 343.052 519.417 348.416ZM541.745 311.206C544.399 311.206 546.736 310.169 545.974 307.362L539.855 288.929C539.581 288.19 539.188 287.814 538.675 287.849C538.408 287.869 537.846 288.167 537.586 288.945L531.43 307.4C530.334 310.683 533.484 311.16 535.466 311.171L541.745 311.206Z"/>
</mask>
<path fill-rule="evenodd" clip-rule="evenodd" d="M470.684 373.829C478.748 373.839 485.519 371.97 490.622 368.279L490.624 368.282C495.727 372.075 502.098 373.831 508.802 373.831C522.358 373.831 530.828 367.227 535.592 354.447C536.477 352.073 537.35 349.695 538.218 347.314H538.685L538.936 348.05C539.581 349.943 540.227 351.836 540.859 353.74C545.048 366.336 555.503 373.831 568.695 373.831C588.201 373.83 599.193 359.591 597.808 340.966C597.392 335.37 596.065 330.411 594.467 325.09C586.799 299.546 578.292 274.512 568.325 249.764C563.213 237.068 552.239 229.925 538.583 229.925C538.469 229.925 538.354 229.926 538.239 229.926V196.156C542.794 188.891 546.758 182.714 550.687 176.59C555.323 169.365 559.911 162.216 565.362 153.445C568.326 148.414 571.549 141.146 571.903 135.323C572.374 127.594 570.402 121.64 565.774 115.361C560.737 108.527 553.21 105.506 544.838 104.484C535.119 103.298 525.429 105.613 518.093 112.422C513.205 116.96 508.484 124.897 504.491 131.84C501.66 126.991 498.716 122.111 495.442 117.859C488.953 109.429 477.673 103.841 467.009 104.259C459.229 104.563 451.697 107.369 446.021 112.779C442.665 115.981 440.379 120.004 439.072 124.352C432.888 121.144 426.026 119.039 419.451 119.039H384.854C372.511 119.039 361.225 127.262 357.016 138.442C344.5 126.38 327.294 119.038 308.666 119.038C293.029 119.038 278.392 124.212 266.691 133.01C261.865 125.463 253.736 120.465 243.696 120.465H191.329C187.296 120.465 183.572 121.319 180.253 122.845C175.046 109.526 161.02 103.928 145.128 103.928C116.982 103.928 92.5411 126.493 92.5484 155.089C92.552 171.565 97.8968 184.618 108.725 194.374C99.2003 199.434 93.0928 209.776 93.0928 221.437C93.0928 225.455 93.7384 229.383 94.9248 233.13C79.9976 234.132 66.4459 244.711 66.4153 260.616L66.2554 344.148L66.2567 344.379C66.4862 364.323 78.6074 373.805 97.5148 373.805L135.409 373.806C141.68 373.806 147.506 371.924 152.271 368.658C157.284 372.191 163.45 373.829 169.926 373.829C183.481 373.829 191.952 367.225 196.716 354.444C197.601 352.07 198.473 349.693 199.341 347.311H199.809C199.894 347.563 199.98 347.815 200.066 348.066C200.709 349.953 201.352 351.84 201.982 353.738C206.171 366.334 216.626 373.829 229.818 373.829C237.389 373.829 243.677 371.683 248.457 367.969C253.412 371.586 259.594 373.717 266.515 373.827L266.82 373.831L267.125 373.825C280.308 373.569 291.669 365.45 295.5 353.495L298.655 358.18L298.769 358.34C305.808 368.297 314.883 373.829 327.197 373.829C335.555 373.829 342.635 371.294 347.948 366.858C353.346 371.235 360.297 373.829 368.165 373.829H385.576C405.916 373.829 426.339 366.421 441.254 353.458C444.425 367.04 454.796 373.811 470.684 373.829ZM145.127 121.189C161.511 121.189 165.141 127.428 165.141 135.202C165.141 138.186 164.874 142.369 161.198 144.716C158.56 146.399 154.491 146.475 146.98 146.478C143.203 146.478 140.948 147.852 139.417 149.517C137.851 151.219 137.052 153.265 137.052 157.355C137.052 167.507 146.376 170.38 157.174 173.706C172.028 178.282 189.672 183.718 189.672 210.146C189.672 237.177 166.054 249.679 146.978 249.679C123.485 249.679 110.351 234.526 110.351 221.437C110.351 213.969 115.341 208.344 122.149 208.344C129.537 208.344 131.914 212.655 134.31 217.002C136.748 221.423 139.206 225.882 146.98 225.882C154.017 225.882 161.546 219.902 161.585 213.523L161.586 213.361L161.587 213.179L161.589 212.94C161.609 210.778 161.624 209.235 160.647 206.957C157.51 199.633 149.3 196.281 140.37 192.635C126.021 186.776 109.813 180.158 109.807 155.086C109.802 135.518 127.068 121.189 145.127 121.189ZM181.096 150.1C181.096 142.645 185.786 137.726 191.328 137.726H243.694C249.299 137.726 254.278 142.042 254.278 150.1C254.278 159.091 247.783 162.658 243.694 162.658H230.144V224.308C230.144 229.102 225.732 233.899 217.246 233.899C207.86 233.899 203.657 227.869 203.657 224.308V162.658C197.768 162.658 195.236 162.658 191.329 162.657C187.518 162.656 181.096 158.942 181.096 150.1ZM359.964 185.697C359.964 158.413 336.997 136.298 308.665 136.298C280.33 136.298 257.363 158.414 257.363 185.697C257.363 212.978 280.33 235.093 308.665 235.093C336.997 235.093 359.964 212.978 359.964 185.697ZM332.378 184.986C332.378 171.604 321.676 160.758 308.475 160.758C295.273 160.758 284.571 171.605 284.571 184.986C284.571 198.366 295.273 209.212 308.475 209.212C321.676 209.212 332.378 198.365 332.378 184.986ZM384.852 136.299H419.45C429.277 136.299 450.614 147.642 450.614 170.246C450.614 180.133 447.298 183.941 442.336 189.639L442.335 189.639C441.44 190.667 440.492 191.756 439.5 192.953C438.726 193.888 437.763 195.591 437.789 196.962C437.81 198.089 438.635 199.49 439.363 200.727C439.484 200.933 439.602 201.134 439.713 201.329L445.911 212.145C454.707 227.493 446.091 236.355 437.913 236.355H437.9C434.255 236.355 428.972 236.355 425.245 229.293L414.189 208.343C413.585 207.196 412.321 206.847 410.961 206.847H400.726C398.988 206.847 398.708 207.7 398.717 209.371L398.775 220.54C398.835 232.169 392.936 236.353 385.431 236.353C379.431 236.353 372.524 233.242 372.524 220.54C372.524 209.411 372.531 200.55 372.538 192.241V192.228V192.217V192.208V192.2V192.194V192.189V192.185V192.182V192.179C372.55 178.505 372.56 166.312 372.534 147.943C372.527 144.06 376.559 136.297 384.855 136.297L384.852 136.299ZM400.191 160.487H410.514C420.918 160.487 422.59 166.288 422.59 170.526C422.59 174.762 419.878 180.277 410.135 180.277H400.954C399.571 180.277 399.003 180.135 399.003 178.658C399.003 177.543 399.004 176.423 399.004 175.299L399.004 173.118C399.005 169.392 399.006 165.644 399.003 161.961V161.958C399.003 161.022 399.003 160.487 400.191 160.487ZM515.984 246.25C512.729 248.717 508.519 249.989 504.451 249.989C500.415 249.989 496.073 248.636 492.836 246.204C489.905 244.003 487.927 240.956 487.927 237.359V196.157C487.786 191.703 487.189 189.751 485.525 187.109L459.159 146.132C458.975 145.819 458.791 145.515 458.61 145.213C457.189 142.854 455.879 140.679 455.196 136.301C454.426 131.362 455.858 127.25 457.931 125.273C460.005 123.296 463.275 121.68 467.683 121.508C472.093 121.334 478.281 123.866 481.764 128.389C484.446 131.875 488.075 138.043 491.369 143.643C492.351 145.312 493.303 146.93 494.191 148.412C498.062 154.867 499.463 156.986 502.272 161.103L502.344 161.204C502.894 161.982 503.433 162.744 504.492 162.744C505.368 162.722 506.127 161.746 506.648 161.076C506.681 161.034 506.712 160.994 506.743 160.954C509.018 158.047 511.522 154.006 515.819 146.74C516.529 145.541 517.287 144.238 518.076 142.885L518.076 142.884L518.076 142.883C522.065 136.037 526.819 127.877 529.836 125.075C533.45 121.721 538.265 121.261 542.746 121.621C545.785 121.865 548.615 122.716 551.451 125.319C553.859 127.531 554.896 130.045 554.579 134.373C554.292 138.267 551.85 142.749 550.226 145.506L536.197 167.308L535.02 169.138L523.456 187.109C521.739 189.78 521.199 191.989 520.978 196.157V237.247C520.978 240.761 519.026 243.943 515.984 246.25ZM97.5159 356.545L135.41 356.546C141.634 356.546 147.238 352.242 147.238 345.326C147.238 335.719 143.256 331.623 135.41 331.613L110.03 331.584L110.162 260.65C110.17 255.855 105.769 250.33 97.2852 250.313C87.9005 250.293 83.6847 256.212 83.675 260.65L83.5151 344.181C83.6396 355.046 88.9086 356.527 97.5159 356.545ZM180.542 348.416C177.686 356.08 174.399 356.57 169.926 356.57C153.073 356.57 158.761 338.206 160.901 331.3C161.047 330.827 161.177 330.408 161.282 330.052C168.587 305.248 175.758 282.365 185.767 256.212C188.031 250.297 192.312 247.184 199.706 247.184C206.601 247.184 211.063 250.313 213.438 256.212C223.596 281.433 231.436 304.657 239.06 330.052C239.093 330.163 239.129 330.281 239.167 330.407L239.259 330.707C241.113 336.773 247.164 356.57 229.818 356.57C225.54 356.57 220.614 355.066 218.362 348.292C217.519 345.757 216.91 343.997 216.337 342.341L216.336 342.34L216.336 342.34L216.335 342.338C215.41 339.663 214.577 337.259 213.004 332.293C212.558 330.886 212.066 330.052 209.636 330.052H190.263L190.058 330.052C187.901 330.05 187.226 330.05 186.584 331.833C184.865 336.606 182.541 343.052 180.542 348.416ZM202.87 311.206C205.524 311.206 207.86 310.169 207.099 307.362L200.98 288.929C200.706 288.19 200.312 287.814 199.8 287.849C199.533 287.869 198.971 288.167 198.711 288.945L192.555 307.4C191.459 310.683 194.609 311.16 196.591 311.171L202.87 311.206ZM253.315 265.211C253.315 256.819 257.074 250.314 266.875 250.314C274.074 250.314 277.23 253.327 280.48 258.116C287.599 269.61 294.719 281.104 301.838 292.597L309.408 304.819C314.295 312.004 314.202 308.551 314.127 305.765C314.118 305.434 314.11 305.112 314.11 304.819V266.773C314.11 254.294 321.722 250.314 327.67 250.314C336.85 250.314 341.368 256.641 341.368 262.064V341.918C341.368 350.767 337.011 356.571 327.196 356.571C322.519 356.571 317.874 355.467 312.862 348.378L283.532 304.819C282.143 302.813 279.621 300.251 279.621 304.819V344.534C279.621 352.84 272.356 356.462 266.791 356.57C261.399 356.484 253.313 353.285 253.313 342.488L253.315 265.211ZM384.246 250.313H367.5C357.782 250.313 353.416 256.213 353.416 266.015V341.176C353.416 348.292 357.783 356.57 368.167 356.57H385.578C419.999 356.57 446.851 332.701 446.823 304.817C446.798 278.934 426.872 250.313 384.246 250.313ZM394.99 274.932H386.586C381.708 274.932 379.515 276.165 379.515 281.462V328.244C379.515 332.089 382.806 332.348 385.54 332.35L392.123 332.358C408.065 332.374 420.49 318.086 420.478 303.018C420.467 289.031 405.349 274.932 394.99 274.932ZM470.703 356.57C479.197 356.57 483.851 354.581 483.98 344.418L484.131 260.651C484.14 255.856 479.739 250.33 471.256 250.314C461.872 250.296 457.646 255.646 457.637 260.651L457.487 344.182C457.611 355.048 462.096 356.551 470.703 356.57ZM519.417 348.416C516.561 356.08 513.274 356.57 508.801 356.57C491.948 356.57 497.637 338.206 499.776 331.3L499.778 331.295C499.923 330.824 500.053 330.407 500.157 330.052C507.462 305.248 514.633 282.365 524.643 256.212C526.907 250.297 531.187 247.184 538.581 247.184C545.476 247.184 549.938 250.313 552.314 256.212C562.471 281.433 570.312 304.657 577.935 330.052C577.965 330.152 577.997 330.257 578.031 330.369C578.064 330.476 578.098 330.589 578.134 330.706C579.988 336.772 586.039 356.57 568.693 356.57C564.415 356.57 559.489 355.066 557.237 348.292C556.395 345.758 555.786 343.999 555.213 342.344L555.211 342.338L555.211 342.338L555.21 342.337L555.209 342.334C554.284 339.661 553.452 337.257 551.879 332.293C551.433 330.886 550.942 330.052 548.512 330.052H529.138L528.933 330.052C526.776 330.05 526.101 330.05 525.459 331.833C523.741 336.606 521.417 343.052 519.417 348.416ZM541.745 311.206C544.399 311.206 546.736 310.169 545.974 307.362L539.855 288.929C539.581 288.19 539.188 287.814 538.675 287.849C538.408 287.869 537.846 288.167 537.586 288.945L531.43 307.4C530.334 310.683 533.484 311.16 535.466 311.171L541.745 311.206Z" fill="#FFFFFF"/>
<path d="M490.622 368.279L490.656 368.263L490.637 368.222L490.6 368.249L490.622 368.279ZM470.684 373.829L470.684 373.791L470.684 373.829ZM490.624 368.282L490.59 368.298L490.594 368.306L490.601 368.312L490.624 368.282ZM535.592 354.447L535.557 354.434L535.592 354.447ZM538.218 347.314V347.276H538.191L538.182 347.301L538.218 347.314ZM538.685 347.314L538.721 347.302L538.712 347.276H538.685V347.314ZM538.936 348.05L538.9 348.062L538.936 348.05ZM540.859 353.74L540.823 353.752V353.752L540.859 353.74ZM568.695 373.831V373.869V373.831ZM597.808 340.966L597.77 340.969L597.808 340.966ZM594.467 325.09L594.431 325.101L594.467 325.09ZM568.325 249.764L568.29 249.779L568.325 249.764ZM538.239 229.926H538.202V229.964H538.239V229.926ZM538.239 196.156L538.207 196.136L538.202 196.145V196.156H538.239ZM550.687 176.59L550.719 176.61L550.687 176.59ZM565.362 153.445L565.394 153.465L565.395 153.464L565.362 153.445ZM571.903 135.323L571.866 135.32V135.32L571.903 135.323ZM565.774 115.361L565.804 115.338V115.338L565.774 115.361ZM544.838 104.484L544.833 104.522V104.522L544.838 104.484ZM518.093 112.422L518.068 112.394V112.394L518.093 112.422ZM504.491 131.84L504.459 131.86L504.492 131.916L504.524 131.859L504.491 131.84ZM495.442 117.859L495.412 117.882L495.442 117.859ZM467.009 104.259L467.01 104.296V104.296L467.009 104.259ZM446.021 112.779L445.995 112.752V112.752L446.021 112.779ZM439.072 124.352L439.054 124.386L439.095 124.407L439.108 124.363L439.072 124.352ZM357.016 138.442L356.989 138.47L357.031 138.509L357.051 138.456L357.016 138.442ZM266.691 133.01L266.659 133.03L266.681 133.064L266.713 133.04L266.691 133.01ZM180.253 122.845L180.218 122.859L180.232 122.896L180.269 122.879L180.253 122.845ZM92.5484 155.089L92.5862 155.089V155.089L92.5484 155.089ZM108.725 194.374L108.743 194.407L108.791 194.382L108.751 194.346L108.725 194.374ZM94.9248 233.13L94.9273 233.167L94.9754 233.164L94.9608 233.118L94.9248 233.13ZM66.4153 260.616L66.3776 260.616L66.4153 260.616ZM66.2554 344.148L66.2177 344.148L66.2177 344.148L66.2554 344.148ZM66.2567 344.379L66.2189 344.379L66.2189 344.379L66.2567 344.379ZM97.5148 373.805L97.5148 373.767H97.5148V373.805ZM135.409 373.806V373.844V373.806ZM152.271 368.658L152.293 368.627L152.271 368.612L152.249 368.626L152.271 368.658ZM196.716 354.444L196.68 354.431L196.716 354.444ZM199.341 347.311V347.274H199.315L199.306 347.299L199.341 347.311ZM199.809 347.311L199.844 347.299L199.836 347.274H199.809V347.311ZM200.066 348.066L200.102 348.054L200.066 348.066ZM201.982 353.738L201.946 353.75L201.946 353.75L201.982 353.738ZM248.457 367.969L248.479 367.939L248.456 367.922L248.434 367.939L248.457 367.969ZM266.515 373.827L266.515 373.789H266.515L266.515 373.827ZM266.82 373.831L266.819 373.869L266.821 373.869L266.82 373.831ZM267.125 373.825L267.124 373.788H267.124L267.125 373.825ZM295.5 353.495L295.532 353.474L295.488 353.409L295.464 353.483L295.5 353.495ZM298.655 358.18L298.624 358.202L298.625 358.202L298.655 358.18ZM298.769 358.34L298.8 358.318L298.8 358.318L298.769 358.34ZM347.948 366.858L347.972 366.829L347.948 366.81L347.924 366.829L347.948 366.858ZM441.254 353.458L441.291 353.45L441.276 353.388L441.229 353.43L441.254 353.458ZM161.198 144.716L161.218 144.748L161.218 144.748L161.198 144.716ZM146.98 146.478V146.515H146.98L146.98 146.478ZM139.417 149.517L139.445 149.542L139.445 149.542L139.417 149.517ZM157.174 173.706L157.185 173.67H157.185L157.174 173.706ZM134.31 217.002L134.277 217.02L134.31 217.002ZM161.585 213.523L161.547 213.523V213.523L161.585 213.523ZM161.586 213.361L161.548 213.361V213.361L161.586 213.361ZM161.587 213.179L161.549 213.178V213.179L161.587 213.179ZM161.589 212.94L161.552 212.94V212.94L161.589 212.94ZM160.647 206.957L160.613 206.971H160.613L160.647 206.957ZM140.37 192.635L140.385 192.6L140.37 192.635ZM109.807 155.086L109.845 155.086L109.807 155.086ZM230.144 162.658V162.62H230.106V162.658H230.144ZM203.657 162.658H203.695V162.62H203.657V162.658ZM191.329 162.657L191.329 162.695L191.329 162.657ZM384.852 136.299L384.826 136.273L384.762 136.337H384.852V136.299ZM442.336 189.639L442.307 189.614L442.305 189.616L442.336 189.639ZM442.335 189.639L442.364 189.664L442.366 189.662L442.335 189.639ZM439.5 192.953L439.471 192.929V192.929L439.5 192.953ZM437.789 196.962L437.826 196.961V196.961L437.789 196.962ZM439.363 200.727L439.33 200.747L439.363 200.727ZM439.713 201.329L439.746 201.31L439.746 201.31L439.713 201.329ZM445.911 212.145L445.879 212.164L445.911 212.145ZM437.9 236.355V236.317V236.355ZM425.245 229.293L425.279 229.275L425.245 229.293ZM414.189 208.343L414.156 208.361L414.156 208.361L414.189 208.343ZM398.717 209.371L398.679 209.371V209.371L398.717 209.371ZM398.775 220.54L398.813 220.54V220.54L398.775 220.54ZM372.538 192.241L372.576 192.241V192.241H372.538ZM372.538 192.179L372.501 192.179V192.179H372.538ZM372.534 147.943L372.571 147.943V147.943L372.534 147.943ZM384.855 136.297L384.882 136.323L384.945 136.259H384.855V136.297ZM399.004 175.299L398.966 175.299L399.004 175.299ZM399.004 173.118L398.966 173.118L399.004 173.118ZM399.003 161.961H398.966V161.961L399.003 161.961ZM515.984 246.25L516.007 246.28L515.984 246.25ZM492.836 246.204L492.859 246.174V246.174L492.836 246.204ZM487.927 196.157H487.965L487.965 196.156L487.927 196.157ZM485.525 187.109L485.557 187.089L485.557 187.089L485.525 187.109ZM459.159 146.132L459.127 146.151L459.127 146.153L459.159 146.132ZM458.61 145.213L458.577 145.232L458.61 145.213ZM455.196 136.301L455.159 136.306L455.196 136.301ZM457.931 125.273L457.957 125.3L457.931 125.273ZM467.683 121.508L467.685 121.545L467.685 121.545L467.683 121.508ZM481.764 128.389L481.794 128.366V128.366L481.764 128.389ZM491.369 143.643L491.402 143.624L491.369 143.643ZM494.191 148.412L494.159 148.431L494.191 148.412ZM502.272 161.103L502.241 161.125L502.242 161.125L502.272 161.103ZM502.344 161.204L502.375 161.183V161.183L502.344 161.204ZM504.492 162.744V162.781L504.493 162.781L504.492 162.744ZM506.648 161.076L506.618 161.053V161.053L506.648 161.076ZM506.743 160.954L506.773 160.978V160.978L506.743 160.954ZM515.819 146.74L515.852 146.759L515.819 146.74ZM518.076 142.885L518.109 142.904L518.11 142.901L518.076 142.885ZM518.076 142.884L518.044 142.864L518.042 142.868L518.076 142.884ZM518.076 142.883L518.109 142.903L518.109 142.902L518.076 142.883ZM529.836 125.075L529.81 125.048L529.81 125.048L529.836 125.075ZM542.746 121.621L542.743 121.659L542.746 121.621ZM551.451 125.319L551.476 125.292V125.292L551.451 125.319ZM554.579 134.373L554.616 134.376V134.376L554.579 134.373ZM550.226 145.506L550.258 145.526L550.259 145.525L550.226 145.506ZM536.197 167.308L536.166 167.288L536.197 167.308ZM535.02 169.138L535.052 169.158L535.02 169.138ZM523.456 187.109L523.424 187.089L523.424 187.089L523.456 187.109ZM520.978 196.157L520.941 196.155V196.157H520.978ZM135.41 356.546V356.584V356.546ZM97.5159 356.545L97.5158 356.583H97.5159L97.5159 356.545ZM135.41 331.613L135.41 331.575L135.41 331.613ZM110.03 331.584L109.992 331.584L109.992 331.622L110.03 331.622L110.03 331.584ZM110.162 260.65L110.2 260.65V260.65L110.162 260.65ZM97.2852 250.313L97.2851 250.351H97.2851L97.2852 250.313ZM83.675 260.65L83.6372 260.649L83.675 260.65ZM83.5151 344.181L83.4773 344.181L83.4773 344.181L83.5151 344.181ZM180.542 348.416L180.507 348.403L180.542 348.416ZM160.901 331.3L160.865 331.289L160.901 331.3ZM161.282 330.052L161.318 330.063L161.282 330.052ZM185.767 256.212L185.732 256.198L185.767 256.212ZM213.438 256.212L213.403 256.226L213.438 256.212ZM239.06 330.052L239.096 330.041L239.06 330.052ZM239.167 330.407L239.131 330.418V330.418L239.167 330.407ZM239.259 330.707L239.223 330.718V330.718L239.259 330.707ZM218.362 348.292L218.398 348.28V348.28L218.362 348.292ZM216.337 342.341L216.301 342.353L216.301 342.354L216.337 342.341ZM216.336 342.34L216.372 342.328L216.372 342.328L216.336 342.34ZM216.335 342.338L216.3 342.35L216.3 342.35L216.335 342.338ZM213.004 332.293L212.968 332.304L213.004 332.293ZM190.263 330.052L190.263 330.09H190.263V330.052ZM190.058 330.052L190.058 330.09H190.058L190.058 330.052ZM186.584 331.833L186.619 331.846L186.584 331.833ZM207.099 307.362L207.135 307.352L207.135 307.35L207.099 307.362ZM202.87 311.206L202.869 311.243H202.87V311.206ZM200.98 288.929L201.016 288.918L201.016 288.916L200.98 288.929ZM199.8 287.849L199.797 287.812L199.797 287.812L199.8 287.849ZM198.711 288.945L198.675 288.933H198.675L198.711 288.945ZM192.555 307.4L192.591 307.412L192.555 307.4ZM196.591 311.171L196.591 311.209H196.591L196.591 311.171ZM253.315 265.211H253.352H253.315ZM280.48 258.116L280.512 258.096L280.511 258.094L280.48 258.116ZM301.838 292.597L301.87 292.577L301.838 292.597ZM309.408 304.819L309.376 304.838L309.377 304.84L309.408 304.819ZM314.127 305.765L314.165 305.764L314.127 305.765ZM312.862 348.378L312.831 348.4L312.832 348.4L312.862 348.378ZM283.532 304.819L283.563 304.797L283.563 304.797L283.532 304.819ZM266.791 356.57L266.79 356.607L266.791 356.607L266.791 356.57ZM253.313 342.488H253.276H253.313ZM446.823 304.817L446.785 304.817L446.823 304.817ZM385.54 332.35L385.54 332.312L385.54 332.35ZM392.123 332.358L392.123 332.395L392.123 332.358ZM420.478 303.018L420.44 303.018L420.478 303.018ZM483.98 344.418L484.018 344.418V344.418L483.98 344.418ZM470.703 356.57L470.703 356.607H470.703V356.57ZM484.131 260.651L484.169 260.651L484.131 260.651ZM471.256 250.314L471.256 250.352L471.256 250.314ZM457.637 260.651L457.675 260.651L457.637 260.651ZM457.487 344.182L457.449 344.182L457.449 344.183L457.487 344.182ZM519.417 348.416L519.382 348.403H519.382L519.417 348.416ZM499.776 331.3L499.74 331.289L499.74 331.289L499.776 331.3ZM499.778 331.295L499.814 331.307L499.814 331.306L499.778 331.295ZM500.157 330.052L500.194 330.063L500.157 330.052ZM524.643 256.212L524.607 256.198L524.643 256.212ZM552.314 256.212L552.279 256.226L552.314 256.212ZM577.935 330.052L577.971 330.041L577.935 330.052ZM578.031 330.369L578.067 330.358L578.031 330.369ZM578.134 330.706L578.17 330.695L578.134 330.706ZM557.237 348.292L557.273 348.28V348.28L557.237 348.292ZM555.213 342.344L555.177 342.357L555.177 342.357L555.213 342.344ZM555.211 342.338L555.175 342.35L555.175 342.351L555.211 342.338ZM555.211 342.338L555.247 342.326L555.246 342.324L555.211 342.338ZM555.21 342.337L555.175 342.349L555.175 342.351L555.21 342.337ZM555.209 342.334L555.245 342.322L555.245 342.322L555.209 342.334ZM551.879 332.293L551.843 332.304L551.879 332.293ZM529.138 330.052L529.138 330.09H529.138V330.052ZM528.933 330.052L528.933 330.09L528.933 330.052ZM525.459 331.833L525.495 331.846L525.459 331.833ZM545.974 307.362L546.011 307.352L546.01 307.35L545.974 307.362ZM541.745 311.206L541.745 311.243H541.745V311.206ZM539.855 288.929L539.891 288.918L539.891 288.916L539.855 288.929ZM538.675 287.849L538.673 287.812L538.672 287.812L538.675 287.849ZM537.586 288.945L537.551 288.933L537.586 288.945ZM531.43 307.4L531.466 307.412L531.43 307.4ZM535.466 311.171L535.466 311.209L535.466 311.171ZM490.6 368.249C485.505 371.934 478.742 373.801 470.684 373.791L470.684 373.867C478.753 373.877 485.533 372.007 490.645 368.31L490.6 368.249ZM490.658 368.265L490.656 368.263L490.588 368.296L490.59 368.298L490.658 368.265ZM508.802 373.794C502.104 373.794 495.742 372.039 490.646 368.251L490.601 368.312C495.712 372.111 502.092 373.869 508.802 373.869V373.794ZM535.557 354.434C533.177 360.819 529.872 365.658 525.472 368.901C521.072 372.144 515.574 373.794 508.802 373.794V373.869C515.587 373.869 521.101 372.216 525.517 368.962C529.932 365.708 533.244 360.855 535.628 354.46L535.557 354.434ZM538.182 347.301C537.314 349.682 536.442 352.06 535.557 354.434L535.628 354.46C536.513 352.086 537.385 349.708 538.253 347.327L538.182 347.301ZM538.685 347.276H538.218V347.352H538.685V347.276ZM538.972 348.038L538.721 347.302L538.649 347.326L538.9 348.062L538.972 348.038ZM540.895 353.728C540.263 351.824 539.617 349.931 538.972 348.038L538.9 348.062C539.546 349.955 540.191 351.848 540.823 353.752L540.895 353.728ZM568.695 373.794C555.519 373.794 545.078 366.309 540.895 353.728L540.823 353.752C545.017 366.363 555.487 373.869 568.695 373.869V373.794ZM597.77 340.969C598.462 350.273 596.063 358.479 591.057 364.358C586.052 370.237 578.438 373.793 568.695 373.794V373.869C578.458 373.869 586.093 370.305 591.115 364.407C596.135 358.51 598.539 350.284 597.846 340.963L597.77 340.969ZM594.431 325.101C596.029 330.421 597.355 335.377 597.77 340.969L597.846 340.963C597.429 335.363 596.102 330.4 594.504 325.079L594.431 325.101ZM568.29 249.779C578.256 274.525 586.763 299.557 594.431 325.101L594.504 325.079C586.835 299.534 578.327 274.499 568.36 249.75L568.29 249.779ZM538.583 229.962C552.224 229.962 563.184 237.097 568.29 249.779L568.36 249.75C563.242 237.039 552.254 229.887 538.583 229.887V229.962ZM538.239 229.964C538.297 229.964 538.354 229.963 538.412 229.963C538.469 229.963 538.526 229.962 538.583 229.962V229.887C538.526 229.887 538.468 229.887 538.411 229.887C538.354 229.888 538.297 229.888 538.239 229.888V229.964ZM538.202 196.156V229.926H538.277V196.156H538.202ZM550.656 176.569C546.726 182.693 542.762 188.871 538.207 196.136L538.271 196.176C542.825 188.911 546.79 182.734 550.719 176.61L550.656 176.569ZM565.33 153.425C559.879 162.196 555.291 169.345 550.656 176.569L550.719 176.61C555.355 169.386 559.943 162.236 565.394 153.465L565.33 153.425ZM571.866 135.32C571.512 141.135 568.292 148.397 565.33 153.426L565.395 153.464C568.359 148.432 571.587 141.157 571.941 135.325L571.866 135.32ZM565.743 115.383C570.367 121.656 572.336 127.602 571.866 135.32L571.941 135.325C572.413 127.587 570.437 121.624 565.804 115.338L565.743 115.383ZM544.833 104.522C553.199 105.543 560.714 108.561 565.743 115.383L565.804 115.338C560.759 108.493 553.22 105.469 544.842 104.447L544.833 104.522ZM518.119 112.449C525.445 105.65 535.123 103.337 544.833 104.522L544.842 104.447C535.114 103.259 525.413 105.577 518.068 112.394L518.119 112.449ZM504.524 131.859C508.517 124.914 513.236 116.983 518.119 112.449L518.068 112.394C513.174 116.937 508.45 124.879 504.459 131.822L504.524 131.859ZM495.412 117.882C498.684 122.132 501.627 127.01 504.459 131.86L504.524 131.821C501.692 126.972 498.747 122.091 495.472 117.836L495.412 117.882ZM467.01 104.296C477.661 103.879 488.93 109.461 495.412 117.882L495.472 117.836C488.976 109.397 477.684 103.803 467.007 104.221L467.01 104.296ZM446.047 112.807C451.715 107.403 459.238 104.6 467.01 104.296L467.007 104.221C459.219 104.525 451.678 107.334 445.995 112.752L446.047 112.807ZM439.108 124.363C440.413 120.02 442.696 116.003 446.047 112.807L445.995 112.752C442.633 115.958 440.344 119.987 439.035 124.342L439.108 124.363ZM419.451 119.077C426.019 119.077 432.875 121.179 439.054 124.386L439.089 124.319C432.902 121.108 426.034 119.002 419.451 119.002V119.077ZM384.854 119.077H419.451V119.002H384.854V119.077ZM357.051 138.456C361.255 127.29 372.527 119.077 384.854 119.077V119.002C372.494 119.002 361.195 127.235 356.98 138.429L357.051 138.456ZM308.666 119.076C327.284 119.076 344.481 126.414 356.989 138.47L357.042 138.415C344.52 126.346 327.304 119 308.666 119V119.076ZM266.713 133.04C278.408 124.247 293.037 119.076 308.666 119.076V119C293.02 119 278.376 124.177 266.668 132.98L266.713 133.04ZM243.696 120.503C253.722 120.503 261.839 125.494 266.659 133.03L266.722 132.989C261.89 125.433 253.749 120.427 243.696 120.427V120.503ZM191.329 120.503H243.696V120.427H191.329V120.503ZM180.269 122.879C183.582 121.356 187.301 120.503 191.329 120.503V120.427C187.29 120.427 183.561 121.283 180.237 122.811L180.269 122.879ZM145.128 103.966C161.013 103.966 175.019 109.562 180.218 122.859L180.288 122.831C175.073 109.491 161.026 103.89 145.128 103.89V103.966ZM92.5862 155.089C92.5789 126.516 117.002 103.966 145.128 103.966V103.89C116.963 103.89 92.5033 126.471 92.5106 155.089L92.5862 155.089ZM108.751 194.346C97.9312 184.598 92.5898 171.556 92.5862 155.089L92.5106 155.089C92.5142 171.575 97.8624 184.638 108.7 194.402L108.751 194.346ZM93.1306 221.437C93.1306 209.789 99.2312 199.461 108.743 194.407L108.708 194.34C99.1695 199.408 93.055 209.763 93.055 221.437H93.1306ZM94.9608 233.118C93.7756 229.375 93.1306 225.451 93.1306 221.437H93.055C93.055 225.459 93.7013 229.39 94.8888 233.141L94.9608 233.118ZM66.4531 260.616C66.4836 244.737 80.014 234.168 94.9273 233.167L94.9223 233.092C79.9811 234.095 66.4081 244.686 66.3776 260.616L66.4531 260.616ZM66.2932 344.148L66.4531 260.616L66.3776 260.616L66.2177 344.148L66.2932 344.148ZM66.2945 344.378L66.2932 344.148L66.2177 344.148L66.2189 344.379L66.2945 344.378ZM97.5148 373.767C88.067 373.767 80.32 371.398 74.9068 366.543C69.4941 361.688 66.4091 354.343 66.2945 344.378L66.2189 344.379C66.3337 354.359 69.4241 361.727 74.8563 366.599C80.2878 371.471 88.0552 373.842 97.5148 373.842V373.767ZM135.409 373.768L97.5148 373.767L97.5148 373.842L135.409 373.844V373.768ZM152.249 368.626C147.491 371.888 141.673 373.768 135.409 373.768V373.844C141.688 373.844 147.521 371.959 152.292 368.689L152.249 368.626ZM169.926 373.791C163.456 373.791 157.298 372.155 152.293 368.627L152.249 368.688C157.269 372.227 163.444 373.867 169.926 373.867V373.791ZM196.68 354.431C194.3 360.816 190.995 365.656 186.595 368.899C182.195 372.142 176.697 373.791 169.926 373.791V373.867C176.71 373.867 182.225 372.214 186.64 368.96C191.055 365.706 194.367 360.852 196.751 354.458L196.68 354.431ZM199.306 347.299C198.438 349.68 197.565 352.057 196.68 354.431L196.751 354.458C197.636 352.083 198.509 349.706 199.377 347.324L199.306 347.299ZM199.809 347.274H199.341V347.349H199.809V347.274ZM200.102 348.054C200.016 347.802 199.93 347.551 199.844 347.299L199.773 347.324C199.858 347.575 199.944 347.827 200.03 348.078L200.102 348.054ZM202.018 353.726C201.388 351.828 200.745 349.941 200.102 348.054L200.03 348.078C200.673 349.965 201.316 351.852 201.946 353.75L202.018 353.726ZM229.818 373.791C216.643 373.791 206.202 366.306 202.018 353.726L201.946 353.75C206.14 366.361 216.61 373.867 229.818 373.867V373.791ZM248.434 367.939C243.661 371.648 237.382 373.791 229.818 373.791V373.867C237.396 373.867 243.693 371.719 248.48 367.999L248.434 367.939ZM266.515 373.789C259.603 373.679 253.428 371.55 248.479 367.939L248.435 368C253.397 371.621 259.586 373.754 266.514 373.864L266.515 373.789ZM266.821 373.794L266.515 373.789L266.514 373.864L266.819 373.869L266.821 373.794ZM267.124 373.788L266.819 373.794L266.821 373.869L267.126 373.863L267.124 373.788ZM295.464 353.483C291.638 365.422 280.293 373.531 267.124 373.788L267.126 373.863C280.324 373.607 291.7 365.478 295.536 353.506L295.464 353.483ZM298.687 358.159L295.532 353.474L295.469 353.516L298.624 358.202L298.687 358.159ZM298.8 358.318L298.686 358.159L298.625 358.202L298.738 358.362L298.8 358.318ZM327.197 373.791C314.897 373.791 305.833 368.267 298.8 358.318L298.738 358.362C305.783 368.328 314.868 373.867 327.197 373.867V373.791ZM347.924 366.829C342.619 371.259 335.547 373.791 327.197 373.791V373.867C335.563 373.867 342.652 371.329 347.973 366.887L347.924 366.829ZM368.165 373.791C360.305 373.791 353.363 371.2 347.972 366.829L347.924 366.888C353.329 371.27 360.288 373.867 368.165 373.867V373.791ZM385.576 373.791H368.165V373.867H385.576V373.791ZM441.229 353.43C426.321 366.387 405.907 373.791 385.576 373.791V373.867C405.924 373.867 426.356 366.456 441.279 353.487L441.229 353.43ZM470.684 373.791C462.745 373.782 456.188 372.086 451.221 368.699C446.255 365.312 442.874 360.233 441.291 353.45L441.217 353.467C442.804 360.266 446.195 365.363 451.179 368.761C456.162 372.159 462.735 373.858 470.684 373.867L470.684 373.791ZM165.179 135.202C165.179 131.31 164.27 127.793 161.303 125.252C158.337 122.711 153.323 121.151 145.127 121.151V121.227C153.316 121.227 158.308 122.786 161.254 125.309C164.197 127.831 165.104 131.321 165.104 135.202H165.179ZM161.218 144.748C164.913 142.389 165.179 138.186 165.179 135.202H165.104C165.104 138.187 164.835 142.349 161.177 144.684L161.218 144.748ZM146.98 146.515C150.735 146.514 153.632 146.495 155.92 146.265C158.208 146.035 159.892 145.594 161.218 144.748L161.177 144.684C159.866 145.521 158.196 145.96 155.913 146.19C153.629 146.419 150.736 146.438 146.98 146.44L146.98 146.515ZM139.445 149.542C140.969 147.885 143.214 146.515 146.98 146.515V146.44C143.192 146.44 140.927 147.819 139.389 149.491L139.445 149.542ZM137.09 157.355C137.09 153.271 137.887 151.236 139.445 149.542L139.389 149.491C137.815 151.203 137.014 153.259 137.014 157.355H137.09ZM157.185 173.67C151.784 172.006 146.759 170.458 143.084 168.058C141.247 166.859 139.749 165.448 138.71 163.706C137.671 161.963 137.09 159.887 137.09 157.355H137.014C137.014 159.899 137.598 161.989 138.645 163.744C139.691 165.499 141.199 166.918 143.043 168.122C146.729 170.528 151.765 172.079 157.162 173.742L157.185 173.67ZM189.71 210.146C189.71 196.922 185.295 188.945 179.017 183.702C172.743 178.462 164.61 175.958 157.185 173.67L157.162 173.742C164.591 176.031 172.708 178.532 178.969 183.76C185.227 188.987 189.634 196.942 189.634 210.146H189.71ZM146.978 249.717C156.524 249.717 167.206 246.589 175.502 240.079C183.799 233.568 189.71 223.674 189.71 210.146H189.634C189.634 223.649 183.736 233.522 175.455 240.02C167.174 246.518 156.509 249.642 146.978 249.642V249.717ZM110.313 221.437C110.313 234.552 123.47 249.717 146.978 249.717V249.642C123.501 249.642 110.389 234.501 110.389 221.437H110.313ZM122.149 208.307C115.316 208.307 110.313 213.952 110.313 221.437H110.389C110.389 213.986 115.365 208.382 122.149 208.382V208.307ZM134.343 216.984C133.146 214.811 131.949 212.641 130.127 211.015C128.302 209.387 125.851 208.307 122.149 208.307V208.382C125.835 208.382 128.267 209.457 130.076 211.071C131.888 212.687 133.078 214.846 134.277 217.02L134.343 216.984ZM146.98 225.845C143.101 225.845 140.552 224.733 138.669 223.072C136.784 221.409 135.563 219.195 134.343 216.984L134.277 217.02C135.495 219.23 136.722 221.456 138.619 223.128C140.517 224.803 143.085 225.92 146.98 225.92V225.845ZM161.547 213.523C161.527 216.697 159.644 219.778 156.882 222.066C154.122 224.353 150.488 225.845 146.98 225.845V225.92C150.509 225.92 154.158 224.421 156.931 222.124C159.703 219.827 161.603 216.727 161.622 213.523L161.547 213.523ZM161.548 213.361L161.547 213.523L161.622 213.523L161.624 213.361L161.548 213.361ZM161.549 213.179L161.548 213.361L161.624 213.361L161.625 213.179L161.549 213.179ZM161.552 212.94L161.549 213.178L161.625 213.179L161.627 212.94L161.552 212.94ZM160.613 206.971C161.586 209.242 161.572 210.779 161.552 212.94L161.627 212.94C161.647 210.778 161.662 209.228 160.682 206.942L160.613 206.971ZM140.356 192.67C144.822 194.493 149.104 196.242 152.661 198.449C156.218 200.656 159.048 203.32 160.613 206.971L160.682 206.942C159.109 203.271 156.266 200.596 152.701 198.385C149.137 196.174 144.849 194.423 140.385 192.6L140.356 192.67ZM109.769 155.086C109.772 167.631 113.829 175.564 119.684 181.093C125.536 186.619 133.183 189.741 140.356 192.67L140.385 192.6C133.209 189.67 125.576 186.553 119.736 181.038C113.898 175.525 109.848 167.612 109.845 155.086L109.769 155.086ZM145.127 121.151C127.05 121.151 109.764 135.494 109.769 155.086L109.845 155.086C109.84 135.542 127.085 121.227 145.127 121.227V121.151ZM191.328 137.688C185.76 137.688 181.058 142.63 181.058 150.1H181.134C181.134 142.66 185.811 137.764 191.328 137.764V137.688ZM243.694 137.688H191.328V137.764H243.694V137.688ZM254.315 150.1C254.315 146.063 253.068 142.96 251.115 140.866C249.163 138.771 246.507 137.688 243.694 137.688V137.764C246.487 137.764 249.122 138.839 251.06 140.917C252.998 142.995 254.24 146.079 254.24 150.1H254.315ZM243.694 162.696C247.802 162.696 254.315 159.113 254.315 150.1H254.24C254.24 159.068 247.764 162.62 243.694 162.62V162.696ZM230.144 162.696H243.694V162.62H230.144V162.696ZM230.182 224.308V162.658H230.106V224.308H230.182ZM217.246 233.937C225.746 233.937 230.182 229.129 230.182 224.308H230.106C230.106 229.075 225.717 233.861 217.246 233.861V233.937ZM203.619 224.308C203.619 227.895 207.844 233.937 217.246 233.937V233.861C207.876 233.861 203.695 227.844 203.695 224.308H203.619ZM203.619 162.658V224.308H203.695V162.658H203.619ZM191.329 162.695C195.236 162.696 197.768 162.696 203.657 162.696V162.62C197.768 162.62 195.236 162.62 191.329 162.619L191.329 162.695ZM181.058 150.1C181.058 158.963 187.498 162.694 191.329 162.695L191.329 162.619C187.538 162.618 181.134 158.92 181.134 150.1H181.058ZM308.665 136.336C336.978 136.336 359.927 158.435 359.927 185.697H360.002C360.002 158.391 337.017 136.26 308.665 136.26V136.336ZM257.401 185.697C257.401 158.437 280.35 136.336 308.665 136.336V136.26C280.311 136.26 257.325 158.392 257.325 185.697H257.401ZM308.665 235.055C280.35 235.055 257.401 212.955 257.401 185.697H257.325C257.325 213 280.311 235.13 308.665 235.13V235.055ZM359.927 185.697C359.927 212.955 336.978 235.055 308.665 235.055V235.13C337.017 235.13 360.002 213 360.002 185.697H359.927ZM308.475 160.796C321.655 160.796 332.34 171.624 332.34 184.986H332.416C332.416 171.583 321.697 160.72 308.475 160.72V160.796ZM284.609 184.986C284.609 171.625 295.295 160.796 308.475 160.796V160.72C295.252 160.72 284.534 171.584 284.534 184.986H284.609ZM308.475 209.174C295.295 209.174 284.609 198.346 284.609 184.986H284.534C284.534 198.387 295.252 209.25 308.475 209.25V209.174ZM332.34 184.986C332.34 198.345 321.655 209.174 308.475 209.174V209.25C321.697 209.25 332.416 198.386 332.416 184.986H332.34ZM419.45 136.262H384.852V136.337H419.45V136.262ZM450.652 170.246C450.652 158.931 445.311 150.434 438.742 144.768C432.174 139.102 424.374 136.262 419.45 136.262V136.337C424.352 136.337 432.135 139.168 438.692 144.825C445.248 150.48 450.576 158.957 450.576 170.246H450.652ZM442.364 189.664C444.845 186.815 446.918 184.435 448.37 181.53C449.822 178.624 450.652 175.194 450.652 170.246H450.576C450.576 175.185 449.748 178.603 448.302 181.496C446.855 184.391 444.789 186.764 442.307 189.614L442.364 189.664ZM442.366 189.662L442.366 189.662L442.305 189.616L442.305 189.617L442.366 189.662ZM439.529 192.977C440.521 191.781 441.469 190.692 442.364 189.664L442.307 189.615C441.412 190.642 440.463 191.732 439.471 192.929L439.529 192.977ZM437.826 196.961C437.814 196.284 438.046 195.521 438.379 194.81C438.712 194.099 439.144 193.442 439.529 192.977L439.471 192.929C439.082 193.399 438.646 194.061 438.31 194.778C437.975 195.494 437.738 196.269 437.751 196.962L437.826 196.961ZM439.395 200.708C439.031 200.089 438.644 199.431 438.345 198.787C438.046 198.143 437.837 197.516 437.826 196.961L437.751 196.962C437.761 197.534 437.976 198.172 438.276 198.819C438.577 199.467 438.966 200.128 439.33 200.747L439.395 200.708ZM439.746 201.31C439.635 201.115 439.516 200.914 439.395 200.708L439.33 200.747C439.451 200.952 439.569 201.153 439.681 201.347L439.746 201.31ZM445.944 212.126L439.746 201.31L439.681 201.347L445.879 212.164L445.944 212.126ZM437.913 236.392C442.015 236.392 446.227 234.17 448.311 230.022C450.395 225.874 450.346 219.808 445.944 212.126L445.879 212.164C450.272 219.831 450.313 225.87 448.243 229.989C446.174 234.108 441.989 236.317 437.913 236.317V236.392ZM437.9 236.392H437.913V236.317H437.9V236.392ZM425.212 229.31C427.079 232.848 429.338 234.621 431.589 235.507C433.839 236.393 436.078 236.392 437.9 236.392V236.317C436.077 236.317 433.852 236.316 431.617 235.437C429.384 234.558 427.138 232.799 425.279 229.275L425.212 229.31ZM414.156 208.361L425.212 229.31L425.279 229.275L414.223 208.325L414.156 208.361ZM410.961 206.885C412.317 206.885 413.562 207.233 414.156 208.361L414.223 208.326C413.609 207.159 412.325 206.809 410.961 206.809V206.885ZM400.726 206.885H410.961V206.809H400.726V206.885ZM398.754 209.371C398.75 208.534 398.819 207.915 399.097 207.503C399.373 207.096 399.862 206.885 400.726 206.885V206.809C399.851 206.809 399.331 207.024 399.035 207.461C398.742 207.894 398.675 208.536 398.679 209.371L398.754 209.371ZM398.813 220.54L398.754 209.371L398.679 209.371L398.737 220.54L398.813 220.54ZM385.431 236.391C389.19 236.391 392.553 235.343 394.967 232.834C397.382 230.325 398.843 226.361 398.813 220.54L398.737 220.54C398.767 226.349 397.309 230.291 394.913 232.782C392.517 235.272 389.177 236.316 385.431 236.316V236.391ZM372.486 220.54C372.486 226.898 374.215 230.863 376.701 233.237C379.187 235.612 382.425 236.391 385.431 236.391V236.316C382.437 236.316 379.221 235.539 376.753 233.183C374.286 230.826 372.562 226.884 372.562 220.54H372.486ZM372.501 192.241C372.493 200.55 372.486 209.411 372.486 220.54H372.562C372.562 209.411 372.569 200.55 372.576 192.241L372.501 192.241ZM372.501 192.228V192.241H372.576V192.228H372.501ZM372.501 192.217V192.228H372.576V192.217H372.501ZM372.501 192.208V192.217H372.576V192.208H372.501ZM372.501 192.2V192.208H372.576V192.2H372.501ZM372.501 192.194V192.2H372.576V192.194H372.501ZM372.501 192.189V192.194H372.576V192.189H372.501ZM372.501 192.185V192.189H372.576V192.185H372.501ZM372.501 192.182V192.185H372.576V192.182H372.501ZM372.501 192.179V192.182H372.576V192.179H372.501ZM372.496 147.943C372.522 166.312 372.512 178.505 372.501 192.179L372.576 192.179C372.588 178.505 372.598 166.312 372.571 147.943L372.496 147.943ZM384.855 136.259C380.694 136.259 377.602 138.206 375.552 140.639C373.503 143.071 372.493 145.991 372.496 147.943L372.571 147.943C372.568 146.012 373.57 143.109 375.61 140.688C377.648 138.269 380.72 136.335 384.855 136.335V136.259ZM384.879 136.326L384.882 136.323L384.828 136.27L384.826 136.273L384.879 136.326ZM410.514 160.449H400.191V160.525H410.514V160.449ZM422.628 170.526C422.628 168.403 422.21 165.882 420.482 163.892C418.754 161.902 415.723 160.449 410.514 160.449V160.525C415.709 160.525 418.716 161.973 420.425 163.942C422.135 165.912 422.553 168.411 422.553 170.526H422.628ZM410.135 180.315C415.014 180.315 418.138 178.934 420.043 177.017C421.948 175.1 422.628 172.652 422.628 170.526H422.553C422.553 172.636 421.877 175.064 419.99 176.963C418.103 178.863 414.999 180.239 410.135 180.239V180.315ZM400.954 180.315H410.135V180.239H400.954V180.315ZM398.966 178.658C398.966 179.399 399.107 179.821 399.438 180.052C399.603 180.167 399.81 180.232 400.06 180.269C400.311 180.306 400.608 180.315 400.954 180.315V180.239C400.608 180.239 400.316 180.23 400.071 180.194C399.826 180.158 399.632 180.096 399.482 179.99C399.183 179.782 399.041 179.394 399.041 178.658H398.966ZM398.966 175.299C398.966 176.423 398.966 177.543 398.966 178.658H399.041C399.041 177.543 399.041 176.423 399.042 175.299L398.966 175.299ZM398.966 173.118L398.966 175.299L399.042 175.299L399.042 173.118L398.966 173.118ZM398.966 161.961C398.968 165.644 398.967 169.392 398.966 173.118L399.042 173.118C399.043 169.392 399.044 165.644 399.041 161.961L398.966 161.961ZM398.966 161.958V161.961H399.041V161.958H398.966ZM400.191 160.449C399.594 160.449 399.278 160.583 399.119 160.852C399.041 160.984 399.003 161.145 398.984 161.329C398.966 161.514 398.966 161.725 398.966 161.958H399.041C399.041 161.724 399.041 161.517 399.06 161.337C399.078 161.158 399.114 161.009 399.184 160.891C399.322 160.658 399.601 160.525 400.191 160.525V160.449ZM504.451 250.027C508.526 250.027 512.744 248.753 516.007 246.28L515.961 246.219C512.713 248.682 508.512 249.951 504.451 249.951V250.027ZM492.814 246.235C496.057 248.671 500.407 250.027 504.451 250.027V249.951C500.422 249.951 496.089 248.6 492.859 246.174L492.814 246.235ZM487.89 237.359C487.89 240.971 489.875 244.028 492.814 246.235L492.859 246.174C489.934 243.977 487.965 240.941 487.965 237.359H487.89ZM487.89 196.157V237.359H487.965V196.157H487.89ZM485.493 187.129C486.324 188.448 486.887 189.593 487.261 190.964C487.634 192.334 487.819 193.933 487.89 196.158L487.965 196.156C487.894 193.928 487.71 192.323 487.334 190.944C486.957 189.564 486.39 188.412 485.557 187.089L485.493 187.129ZM459.127 146.153L485.494 187.13L485.557 187.089L459.191 146.112L459.127 146.153ZM458.577 145.232C458.759 145.534 458.942 145.839 459.127 146.151L459.192 146.113C459.007 145.8 458.824 145.495 458.642 145.193L458.577 145.232ZM455.159 136.306C455.843 140.692 457.156 142.872 458.577 145.232L458.642 145.193C457.222 142.836 455.915 140.666 455.233 136.295L455.159 136.306ZM457.905 125.246C455.82 127.234 454.387 131.359 455.159 136.306L455.233 136.295C454.465 131.365 455.895 127.267 457.957 125.3L457.905 125.246ZM467.682 121.47C463.265 121.642 459.986 123.262 457.905 125.246L457.957 125.3C460.024 123.33 463.285 121.717 467.685 121.545L467.682 121.47ZM481.794 128.366C478.304 123.833 472.104 121.296 467.682 121.47L467.685 121.545C472.083 121.373 478.259 123.899 481.734 128.412L481.794 128.366ZM491.402 143.624C488.108 138.024 484.478 131.854 481.794 128.366L481.734 128.412C484.415 131.896 488.041 138.061 491.336 143.662L491.402 143.624ZM494.224 148.393C493.335 146.911 492.383 145.292 491.402 143.624L491.336 143.662C492.318 145.331 493.27 146.949 494.159 148.431L494.224 148.393ZM502.304 161.082C499.494 156.966 498.094 154.847 494.224 148.393L494.159 148.431C498.029 154.888 499.431 157.007 502.241 161.125L502.304 161.082ZM502.375 161.183L502.303 161.081L502.242 161.125L502.313 161.226L502.375 161.183ZM504.492 162.706C503.455 162.706 502.927 161.963 502.375 161.183L502.313 161.226C502.861 162.001 503.41 162.781 504.492 162.781V162.706ZM506.618 161.053C506.358 161.388 506.039 161.797 505.678 162.125C505.316 162.453 504.916 162.695 504.492 162.706L504.493 162.781C504.945 162.77 505.362 162.513 505.729 162.181C506.096 161.848 506.418 161.434 506.678 161.099L506.618 161.053ZM506.713 160.931C506.683 160.97 506.651 161.011 506.618 161.053L506.678 161.099C506.711 161.058 506.742 161.017 506.773 160.978L506.713 160.931ZM515.787 146.721C511.489 153.987 508.987 158.026 506.713 160.931L506.773 160.978C509.05 158.068 511.554 154.025 515.852 146.759L515.787 146.721ZM518.043 142.866C517.255 144.219 516.496 145.521 515.787 146.721L515.852 146.759C516.561 145.56 517.32 144.257 518.108 142.904L518.043 142.866ZM518.042 142.868L518.042 142.868L518.11 142.901L518.11 142.9L518.042 142.868ZM518.044 142.864L518.044 142.864L518.108 142.904L518.109 142.903L518.044 142.864ZM529.81 125.048C528.298 126.452 526.352 129.196 524.288 132.442C522.224 135.689 520.038 139.441 518.044 142.864L518.109 142.902C520.103 139.479 522.289 135.728 524.352 132.483C526.417 129.236 528.357 126.5 529.862 125.103L529.81 125.048ZM542.749 121.583C538.265 121.223 533.436 121.683 529.81 125.048L529.862 125.103C533.464 121.76 538.265 121.299 542.743 121.659L542.749 121.583ZM551.476 125.292C548.633 122.681 545.794 121.828 542.749 121.583L542.743 121.659C545.775 121.902 548.597 122.751 551.425 125.347L551.476 125.292ZM554.616 134.376C554.775 132.209 554.595 130.492 554.072 129.04C553.549 127.587 552.684 126.401 551.476 125.292L551.425 125.347C552.626 126.45 553.483 127.626 554.001 129.065C554.52 130.505 554.699 132.21 554.541 134.371L554.616 134.376ZM550.259 145.525C551.882 142.769 554.329 138.28 554.616 134.376L554.541 134.371C554.255 138.254 551.818 142.729 550.194 145.487L550.259 145.525ZM536.229 167.329L550.258 145.526L550.195 145.485L536.166 167.288L536.229 167.329ZM535.052 169.158L536.229 167.329L536.166 167.288L534.988 169.117L535.052 169.158ZM523.488 187.13L535.052 169.158L534.988 169.117L523.424 187.089L523.488 187.13ZM521.016 196.159C521.237 191.995 521.775 189.793 523.488 187.13L523.424 187.089C521.702 189.767 521.162 191.983 520.941 196.155L521.016 196.159ZM521.016 237.247V196.157H520.941V237.247H521.016ZM516.007 246.28C519.055 243.968 521.016 240.776 521.016 237.247H520.941C520.941 240.746 518.996 243.918 515.961 246.219L516.007 246.28ZM135.41 356.509L97.5159 356.507L97.5159 356.583L135.41 356.584V356.509ZM147.201 345.326C147.201 352.217 141.617 356.509 135.41 356.509V356.584C141.65 356.584 147.276 352.266 147.276 345.326H147.201ZM135.41 331.651C139.327 331.656 142.271 332.68 144.238 334.896C146.206 337.112 147.201 340.527 147.201 345.326H147.276C147.276 340.518 146.28 337.082 144.295 334.845C142.309 332.608 139.339 331.58 135.41 331.575L135.41 331.651ZM110.03 331.622L135.41 331.651L135.41 331.575L110.03 331.546L110.03 331.622ZM110.124 260.649L109.992 331.584L110.068 331.584L110.2 260.65L110.124 260.649ZM97.2851 250.351C105.752 250.368 110.133 255.879 110.124 260.649L110.2 260.65C110.208 255.831 105.787 250.292 97.2853 250.275L97.2851 250.351ZM83.7128 260.65C83.7225 256.236 87.9181 250.331 97.2851 250.351L97.2853 250.275C87.8829 250.255 83.647 256.188 83.6372 260.649L83.7128 260.65ZM83.5529 344.181L83.7128 260.65L83.6372 260.649L83.4773 344.181L83.5529 344.181ZM97.516 356.507C93.2118 356.498 89.7543 356.123 87.3565 354.4C84.962 352.68 83.615 349.608 83.5529 344.181L83.4773 344.181C83.5396 349.619 84.8894 352.721 87.3124 354.461C89.732 356.2 93.2127 356.574 97.5158 356.583L97.516 356.507ZM169.926 356.607C172.163 356.607 174.113 356.485 175.86 355.399C177.609 354.312 179.148 352.265 180.578 348.43L180.507 348.403C179.08 352.232 177.548 354.261 175.821 355.335C174.093 356.409 172.162 356.532 169.926 356.532V356.607ZM160.865 331.289C159.795 334.741 157.836 341.065 158.253 346.528C158.462 349.26 159.266 351.781 161.078 353.619C162.89 355.458 165.706 356.607 169.926 356.607V356.532C165.719 356.532 162.926 355.386 161.132 353.566C159.337 351.745 158.537 349.244 158.329 346.522C157.912 341.076 159.867 334.766 160.937 331.312L160.865 331.289ZM161.246 330.041C161.141 330.397 161.011 330.816 160.865 331.289L160.937 331.312C161.083 330.839 161.213 330.419 161.318 330.063L161.246 330.041ZM185.732 256.198C175.722 282.353 168.551 305.237 161.246 330.041L161.318 330.063C168.623 305.259 175.793 282.378 185.803 256.225L185.732 256.198ZM199.706 247.147C196.004 247.147 193.077 247.926 190.792 249.449C188.507 250.971 186.866 253.235 185.732 256.198L185.803 256.225C186.933 253.273 188.564 251.024 190.834 249.511C193.103 247.999 196.014 247.222 199.706 247.222V247.147ZM213.473 256.197C212.283 253.242 210.57 250.979 208.288 249.455C206.006 247.93 203.159 247.147 199.706 247.147V247.222C203.148 247.222 205.979 248.003 208.246 249.517C210.513 251.032 212.218 253.282 213.403 256.226L213.473 256.197ZM239.096 330.041C231.472 304.646 223.631 281.42 213.473 256.197L213.403 256.226C223.56 281.446 231.4 304.669 239.024 330.063L239.096 330.041ZM239.204 330.396C239.165 330.27 239.129 330.152 239.096 330.041L239.024 330.063C239.057 330.174 239.093 330.292 239.131 330.418L239.204 330.396ZM239.295 330.695L239.204 330.396L239.131 330.418L239.223 330.718L239.295 330.695ZM229.818 356.607C234.162 356.607 237.047 355.368 238.899 353.407C240.75 351.448 241.564 348.774 241.776 345.916C242.2 340.2 240.222 333.727 239.295 330.695L239.223 330.718C240.15 333.752 242.124 340.211 241.701 345.91C241.489 348.759 240.679 351.413 238.844 353.356C237.01 355.297 234.147 356.532 229.818 356.532V356.607ZM218.326 348.304C219.455 351.698 221.254 353.776 223.311 355.003C225.366 356.231 227.675 356.607 229.818 356.607V356.532C227.683 356.532 225.389 356.156 223.35 354.939C221.31 353.721 219.521 351.659 218.398 348.28L218.326 348.304ZM216.301 342.354C216.874 344.009 217.483 345.769 218.326 348.304L218.398 348.28C217.555 345.745 216.946 343.985 216.372 342.329L216.301 342.354ZM216.301 342.352L216.301 342.353L216.373 342.329L216.372 342.328L216.301 342.352ZM216.3 342.352L216.301 342.352L216.372 342.328L216.372 342.328L216.3 342.352ZM216.3 342.35L216.301 342.352L216.372 342.328L216.371 342.325L216.3 342.35ZM212.968 332.304C214.542 337.271 215.374 339.676 216.3 342.35L216.371 342.325C215.445 339.651 214.613 337.247 213.04 332.282L212.968 332.304ZM209.636 330.09C210.848 330.09 211.568 330.298 212.041 330.674C212.513 331.051 212.745 331.601 212.968 332.304L213.04 332.282C212.817 331.578 212.58 331.007 212.088 330.615C211.595 330.223 210.855 330.014 209.636 330.014V330.09ZM190.263 330.09H209.636V330.014H190.263V330.09ZM190.058 330.09L190.263 330.09L190.263 330.014L190.058 330.014L190.058 330.09ZM186.619 331.846C186.939 330.957 187.263 330.524 187.767 330.308C188.021 330.199 188.323 330.144 188.698 330.116C189.073 330.089 189.518 330.089 190.058 330.09L190.058 330.014C189.519 330.014 189.071 330.013 188.693 330.041C188.314 330.069 188.003 330.125 187.738 330.238C187.204 330.467 186.87 330.925 186.548 331.82L186.619 331.846ZM180.578 348.43C182.577 343.065 184.901 336.619 186.619 331.846L186.548 331.82C184.83 336.594 182.506 343.039 180.507 348.403L180.578 348.43ZM207.062 307.372C207.251 308.069 207.247 308.652 207.096 309.136C206.946 309.619 206.647 310.005 206.243 310.306C205.432 310.909 204.194 311.168 202.87 311.168V311.243C204.2 311.243 205.458 310.984 206.288 310.367C206.704 310.058 207.013 309.659 207.169 309.158C207.325 308.658 207.327 308.059 207.135 307.352L207.062 307.372ZM200.944 288.941L207.063 307.374L207.135 307.35L201.016 288.918L200.944 288.941ZM199.802 287.887C200.048 287.87 200.264 287.951 200.454 288.127C200.644 288.303 200.809 288.576 200.945 288.943L201.016 288.916C200.877 288.544 200.708 288.259 200.505 288.071C200.301 287.883 200.065 287.793 199.797 287.812L199.802 287.887ZM198.747 288.957C199.003 288.191 199.553 287.905 199.803 287.887L199.797 287.812C199.512 287.832 198.939 288.143 198.675 288.933L198.747 288.957ZM192.591 307.412L198.747 288.957L198.675 288.933L192.519 307.388L192.591 307.412ZM196.591 311.134C195.601 311.128 194.327 311.006 193.438 310.48C192.994 310.218 192.649 309.857 192.48 309.361C192.311 308.864 192.318 308.228 192.591 307.412L192.519 307.388C192.243 308.214 192.233 308.868 192.409 309.385C192.584 309.902 192.944 310.276 193.399 310.545C194.307 311.082 195.599 311.204 196.591 311.209L196.591 311.134ZM202.87 311.168L196.591 311.134L196.591 311.209L202.869 311.243L202.87 311.168ZM266.875 250.276C261.965 250.276 258.563 251.906 256.39 254.592C254.218 257.276 253.277 261.01 253.277 265.211H253.352C253.352 261.02 254.291 257.305 256.449 254.639C258.605 251.975 261.983 250.352 266.875 250.352V250.276ZM280.511 258.094C278.886 255.699 277.28 253.744 275.179 252.387C273.076 251.031 270.48 250.276 266.875 250.276V250.352C270.469 250.352 273.05 251.104 275.138 252.451C277.226 253.799 278.825 255.744 280.449 258.137L280.511 258.094ZM301.87 292.577C294.751 281.084 287.631 269.59 280.512 258.096L280.448 258.136C287.567 269.63 294.687 281.124 301.806 292.617L301.87 292.577ZM309.44 304.799L301.87 292.577L301.806 292.617L309.376 304.838L309.44 304.799ZM314.09 305.766C314.108 306.463 314.128 307.199 314.071 307.799C314.043 308.1 313.995 308.364 313.92 308.572C313.845 308.78 313.743 308.926 313.611 308.998C313.479 309.069 313.309 309.072 313.084 308.975C312.858 308.878 312.581 308.682 312.244 308.362C311.57 307.722 310.661 306.593 309.44 304.797L309.377 304.84C310.599 306.637 311.511 307.771 312.192 308.417C312.532 308.74 312.816 308.943 313.054 309.045C313.292 309.147 313.488 309.15 313.647 309.064C313.803 308.979 313.913 308.813 313.991 308.597C314.07 308.381 314.118 308.109 314.146 307.806C314.204 307.201 314.184 306.46 314.165 305.764L314.09 305.766ZM314.072 304.819C314.072 305.113 314.081 305.435 314.09 305.766L314.165 305.764C314.156 305.433 314.148 305.111 314.148 304.819H314.072ZM314.072 266.773V304.819H314.148V266.773H314.072ZM327.67 250.276C324.688 250.276 321.288 251.274 318.633 253.837C315.978 256.4 314.072 260.526 314.072 266.773H314.148C314.148 260.542 316.048 256.437 318.686 253.891C321.324 251.344 324.704 250.352 327.67 250.352V250.276ZM341.406 262.064C341.406 256.62 336.87 250.276 327.67 250.276V250.352C336.829 250.352 341.33 256.662 341.33 262.064H341.406ZM341.406 341.918V262.064H341.33V341.918H341.406ZM327.196 356.609C332.111 356.609 335.666 355.155 337.991 352.588C340.315 350.022 341.406 346.348 341.406 341.918H341.33C341.33 346.337 340.242 349.99 337.935 352.537C335.628 355.085 332.096 356.533 327.196 356.533V356.609ZM312.832 348.4C315.34 351.949 317.759 354.001 320.138 355.167C322.518 356.332 324.855 356.609 327.196 356.609V356.533C324.861 356.533 322.537 356.257 320.171 355.099C317.806 353.941 315.396 351.897 312.893 348.357L312.832 348.4ZM283.5 304.84L312.831 348.4L312.894 348.357L283.563 304.797L283.5 304.84ZM279.659 304.819C279.659 303.678 279.817 302.992 280.068 302.631C280.192 302.452 280.339 302.355 280.5 302.32C280.663 302.284 280.845 302.311 281.041 302.389C281.436 302.546 281.876 302.907 282.307 303.356C282.737 303.805 283.154 304.34 283.501 304.84L283.563 304.797C283.215 304.295 282.795 303.757 282.362 303.304C281.929 302.852 281.479 302.482 281.069 302.319C280.864 302.237 280.666 302.206 280.484 302.246C280.301 302.286 280.139 302.396 280.006 302.588C279.74 302.969 279.583 303.676 279.583 304.819H279.659ZM279.659 344.534V304.819H279.583V344.534H279.659ZM266.791 356.607C269.581 356.553 272.797 355.619 275.316 353.656C277.836 351.692 279.659 348.699 279.659 344.534H279.583C279.583 348.674 277.773 351.646 275.27 353.596C272.765 355.548 269.566 356.478 266.79 356.532L266.791 356.607ZM253.276 342.488C253.276 347.897 255.302 351.407 258.007 353.575C260.71 355.742 264.088 356.565 266.79 356.607L266.791 356.532C264.102 356.489 260.741 355.67 258.054 353.516C255.368 351.364 253.351 347.876 253.351 342.488H253.276ZM253.277 265.211L253.276 342.488H253.351L253.352 265.211H253.277ZM367.5 250.351H384.246V250.275H367.5V250.351ZM353.454 266.015C353.454 261.119 354.545 257.203 356.843 254.513C359.14 251.823 362.649 250.351 367.5 250.351V250.275C362.633 250.275 359.1 251.753 356.785 254.464C354.471 257.173 353.378 261.109 353.378 266.015H353.454ZM353.454 341.176V266.015H353.378V341.176H353.454ZM368.167 356.532C362.986 356.532 359.309 354.467 356.927 351.517C354.544 348.566 353.454 344.727 353.454 341.176H353.378C353.378 344.741 354.472 348.598 356.868 351.565C359.265 354.533 362.964 356.607 368.167 356.607V356.532ZM385.578 356.532H368.167V356.607H385.578V356.532ZM446.785 304.817C446.813 332.675 419.984 356.532 385.578 356.532V356.607C420.015 356.607 446.889 332.727 446.861 304.817L446.785 304.817ZM384.246 250.351C405.55 250.351 421.178 257.503 431.483 267.886C441.788 278.269 446.773 291.885 446.785 304.817L446.861 304.817C446.848 291.866 441.857 278.231 431.537 267.832C421.216 257.434 405.568 250.275 384.246 250.275V250.351ZM386.586 274.97H394.99V274.895H386.586V274.97ZM379.553 281.462C379.553 278.817 380.101 277.199 381.246 276.24C382.393 275.279 384.148 274.97 386.586 274.97V274.895C384.146 274.895 382.366 275.202 381.197 276.182C380.026 277.163 379.477 278.81 379.477 281.462H379.553ZM379.553 328.244V281.462H379.477V328.244H379.553ZM385.54 332.312C384.172 332.311 382.674 332.246 381.518 331.704C380.941 331.434 380.451 331.045 380.104 330.488C379.757 329.93 379.553 329.2 379.553 328.244H379.477C379.477 329.211 379.684 329.955 380.04 330.528C380.396 331.1 380.899 331.497 381.486 331.772C382.659 332.322 384.173 332.387 385.54 332.388L385.54 332.312ZM392.123 332.32L385.54 332.312L385.54 332.388L392.123 332.395L392.123 332.32ZM420.44 303.018C420.452 318.067 408.042 332.336 392.123 332.32L392.123 332.395C408.088 332.411 420.528 318.104 420.516 303.018L420.44 303.018ZM394.99 274.97C400.155 274.97 406.515 278.487 411.587 283.756C416.659 289.025 420.434 296.038 420.44 303.018L420.516 303.018C420.51 296.011 416.721 288.981 411.642 283.704C406.563 278.427 400.184 274.895 394.99 274.895V274.97ZM483.942 344.417C483.878 349.494 482.683 352.518 480.455 354.275C478.224 356.034 474.949 356.532 470.703 356.532V356.607C474.95 356.607 478.249 356.111 480.502 354.335C482.756 352.557 483.953 349.505 484.018 344.418L483.942 344.417ZM484.094 260.651L483.942 344.418L484.018 344.418L484.169 260.651L484.094 260.651ZM471.256 250.352C479.721 250.368 484.102 255.88 484.094 260.651L484.169 260.651C484.178 255.833 479.756 250.292 471.256 250.276L471.256 250.352ZM457.675 260.651C457.679 258.159 458.733 255.581 460.956 253.627C463.178 251.674 466.571 250.343 471.256 250.352L471.256 250.276C466.557 250.267 463.145 251.602 460.906 253.57C458.667 255.539 457.604 258.138 457.599 260.651L457.675 260.651ZM457.525 344.182L457.675 260.651L457.599 260.651L457.449 344.182L457.525 344.182ZM470.703 356.532C466.399 356.523 463.138 356.141 460.937 354.414C458.739 352.688 457.587 349.611 457.525 344.182L457.449 344.183C457.511 349.619 458.664 352.726 460.891 354.473C463.115 356.219 466.4 356.598 470.703 356.607L470.703 356.532ZM508.801 356.607C511.038 356.607 512.988 356.485 514.736 355.399C516.484 354.312 518.023 352.265 519.453 348.43L519.382 348.403C517.955 352.232 516.423 354.261 514.696 355.335C512.968 356.409 511.038 356.532 508.801 356.532V356.607ZM499.74 331.289C498.671 334.741 496.711 341.065 497.129 346.528C497.338 349.26 498.141 351.781 499.953 353.619C501.766 355.458 504.581 356.607 508.801 356.607V356.532C504.595 356.532 501.801 355.386 500.007 353.566C498.212 351.745 497.412 349.244 497.204 346.522C496.788 341.076 498.742 334.766 499.812 331.312L499.74 331.289ZM499.742 331.284L499.74 331.289L499.812 331.312L499.814 331.307L499.742 331.284ZM500.121 330.041C500.017 330.396 499.887 330.813 499.742 331.284L499.814 331.306C499.96 330.836 500.089 330.418 500.194 330.063L500.121 330.041ZM524.607 256.198C514.597 282.353 507.426 305.237 500.121 330.041L500.194 330.063C507.498 305.259 514.669 282.378 524.678 256.225L524.607 256.198ZM538.581 247.147C534.879 247.147 531.952 247.926 529.667 249.449C527.382 250.971 525.741 253.235 524.607 256.198L524.678 256.225C525.808 253.273 527.44 251.024 529.709 249.511C531.979 247.999 534.889 247.222 538.581 247.222V247.147ZM552.349 256.197C551.159 253.242 549.445 250.979 547.163 249.455C544.881 247.93 542.034 247.147 538.581 247.147V247.222C542.023 247.222 544.854 248.003 547.121 249.517C549.388 251.032 551.093 253.282 552.279 256.226L552.349 256.197ZM577.971 330.041C570.348 304.646 562.507 281.42 552.349 256.197L552.279 256.226C562.435 281.446 570.276 304.669 577.899 330.063L577.971 330.041ZM578.067 330.358C578.033 330.246 578.001 330.141 577.971 330.041L577.899 330.063C577.929 330.163 577.961 330.268 577.995 330.38L578.067 330.358ZM578.17 330.695C578.134 330.578 578.1 330.465 578.067 330.358L577.995 330.38C578.028 330.487 578.062 330.6 578.098 330.717L578.17 330.695ZM568.693 356.607C573.037 356.607 575.922 355.368 577.774 353.407C579.626 351.448 580.439 348.774 580.651 345.915C581.076 340.2 579.097 333.727 578.17 330.695L578.098 330.717C579.025 333.751 580.999 340.211 580.576 345.91C580.365 348.759 579.554 351.413 577.719 353.355C575.885 355.297 573.022 356.532 568.693 356.532V356.607ZM557.201 348.304C558.33 351.698 560.13 353.776 562.186 355.003C564.242 356.231 566.55 356.607 568.693 356.607V356.532C566.558 356.532 564.265 356.156 562.225 354.939C560.186 353.721 558.396 351.659 557.273 348.28L557.201 348.304ZM555.177 342.357C555.75 344.011 556.359 345.77 557.201 348.304L557.273 348.28C556.43 345.746 555.822 343.987 555.249 342.332L555.177 342.357ZM555.175 342.351L555.177 342.357L555.249 342.332L555.247 342.326L555.175 342.351ZM555.175 342.35L555.175 342.35L555.247 342.326L555.247 342.326L555.175 342.35ZM555.175 342.351L555.176 342.352L555.246 342.324L555.245 342.323L555.175 342.351ZM555.174 342.346L555.175 342.349L555.246 342.325L555.245 342.322L555.174 342.346ZM551.843 332.304C553.416 337.268 554.248 339.673 555.174 342.346L555.245 342.322C554.32 339.649 553.488 337.245 551.915 332.282L551.843 332.304ZM548.512 330.09C549.723 330.09 550.443 330.298 550.916 330.674C551.389 331.051 551.62 331.601 551.843 332.304L551.915 332.282C551.692 331.578 551.455 331.007 550.963 330.615C550.471 330.223 549.73 330.014 548.512 330.014V330.09ZM529.138 330.09H548.512V330.014H529.138V330.09ZM528.933 330.09L529.138 330.09L529.138 330.014L528.933 330.014L528.933 330.09ZM525.495 331.846C525.814 330.957 526.139 330.524 526.643 330.308C526.896 330.199 527.198 330.144 527.573 330.116C527.948 330.089 528.393 330.089 528.933 330.09L528.933 330.014C528.394 330.014 527.946 330.013 527.568 330.041C527.189 330.069 526.878 330.125 526.613 330.238C526.08 330.467 525.746 330.925 525.424 331.82L525.495 331.846ZM519.453 348.43C521.452 343.065 523.776 336.619 525.495 331.846L525.424 331.82C523.705 336.594 521.381 343.039 519.382 348.403L519.453 348.43ZM545.938 307.372C546.127 308.069 546.123 308.652 545.972 309.136C545.821 309.619 545.523 310.005 545.118 310.306C544.307 310.909 543.069 311.168 541.745 311.168V311.243C543.075 311.243 544.333 310.984 545.163 310.367C545.579 310.058 545.888 309.659 546.044 309.158C546.2 308.658 546.202 308.059 546.01 307.352L545.938 307.372ZM539.82 288.941L545.938 307.374L546.01 307.35L539.891 288.918L539.82 288.941ZM538.678 287.887C538.923 287.87 539.139 287.951 539.329 288.127C539.52 288.303 539.684 288.576 539.82 288.943L539.891 288.916C539.752 288.544 539.583 288.259 539.38 288.071C539.177 287.883 538.94 287.793 538.673 287.812L538.678 287.887ZM537.622 288.957C537.878 288.191 538.428 287.905 538.678 287.887L538.672 287.812C538.387 287.832 537.815 288.143 537.551 288.933L537.622 288.957ZM531.466 307.412L537.622 288.957L537.551 288.933L531.394 307.388L531.466 307.412ZM535.467 311.134C534.476 311.128 533.202 311.006 532.313 310.48C531.87 310.218 531.524 309.857 531.355 309.361C531.187 308.864 531.194 308.228 531.466 307.412L531.394 307.388C531.118 308.214 531.108 308.868 531.284 309.385C531.459 309.902 531.82 310.276 532.275 310.545C533.182 311.082 534.474 311.204 535.466 311.209L535.467 311.134ZM541.745 311.168L535.467 311.134L535.466 311.209L541.745 311.243L541.745 311.168Z" fill="#FFFFFF" mask="url(#path-17-inside-1_150_2)"/>
<path fill-rule="evenodd" clip-rule="evenodd" d="M653.655 163.711C656.014 166.108 655.983 169.964 653.586 172.322L605.977 219.167C603.58 221.526 599.725 221.494 597.366 219.097C595.007 216.7 595.038 212.845 597.435 210.486L645.044 163.642C647.441 161.283 651.297 161.314 653.655 163.711Z" fill="#FFFFFF" stroke="#FFFFFF" stroke-width="3.77121" stroke-miterlimit="22.9256" stroke-linecap="round"/>
<path d="M605.897 159.393C605.897 163.526 602.546 166.877 598.413 166.877C594.28 166.877 590.93 163.526 590.93 159.393C590.93 155.26 594.28 151.909 598.413 151.909C602.546 151.909 605.897 155.26 605.897 159.393Z" fill="#FFFFFF" stroke="#FFFFFF" stroke-width="0.0377953"/>
<path fill-rule="evenodd" clip-rule="evenodd" d="M612.069 328.713C613.703 325.773 617.411 324.715 620.35 326.349L654.867 345.539C657.806 347.173 658.865 350.88 657.23 353.82C655.596 356.759 651.889 357.817 648.95 356.183L614.433 336.994C611.493 335.359 610.435 331.652 612.069 328.713Z" fill="#FFFFFF" stroke="#FFFFFF" stroke-width="3.77121" stroke-miterlimit="22.9256" stroke-linecap="round"/>
<path fill-rule="evenodd" clip-rule="evenodd" d="M659.889 259.735C660.481 263.045 658.277 266.209 654.966 266.801L616.257 273.724C612.946 274.316 609.783 272.112 609.191 268.802C608.599 265.491 610.802 262.328 614.113 261.735L652.822 254.813C656.133 254.221 659.297 256.424 659.889 259.735Z" fill="#FFFFFF" stroke="#FFFFFF" stroke-width="3.77121" stroke-miterlimit="22.9256" stroke-linecap="round"/>
</svg>
